<svg fill="none" xmlns="http://www.w3.org/2000/svg" viewBox="0 0 407 205"><g clip-path="url(#clip0_263_87)" fill="#fff"><path d="m230.754 167.826-.285-2.687-.499-2.634c-.196-.872-.463-1.726-.694-2.58-.286-.837-.624-1.655-.927-2.491-.356-.801-.766-1.584-1.14-2.385-.41-.783-.891-1.513-1.336-2.278-.463-.729-.997-1.423-1.496-2.153-.535-.676-1.122-1.335-1.675-1.993-.605-.641-1.229-1.246-1.852-1.851l-1.978-1.69-2.101-1.495-2.227-1.299-2.334-1.103-2.387-.908-2.458-.712-2.494-.48a1.987 1.987 0 0 1-1.603-2.082l.018-.214c.035-.516.089-1.014.124-1.53-.017-.516.018-1.015-.035-1.531-.089-1.014-.232-2.028-.517-3.007-.142-.498-.267-.996-.463-1.459l-.267-.73-.339-.694a10.15 10.15 0 0 0-.712-1.388c-.232-.462-.534-.872-.819-1.317a21.34 21.34 0 0 0-1.907-2.473 29.446 29.446 0 0 0-4.738-4.146 31.78 31.78 0 0 0-2.69-1.638 28.197 28.197 0 0 0-5.842-2.277 26.349 26.349 0 0 0-3.047-.623 22.056 22.056 0 0 0-3.063-.214c-.517-.035-1.016 0-1.532.018-.499.018-1.016.071-1.515.142-.498.036-.997.125-1.496.232-.481.089-.98.178-1.461.32a21.19 21.19 0 0 0-2.832.961c-.463.196-.926.374-1.372.605l-1.318.712a3.755 3.755 0 0 1-5.077-1.531 1.615 1.615 0 0 1-.142-.302l-.107-.214-1.158-2.74c-.481-.89-.908-1.78-1.389-2.634-.552-.836-1.033-1.708-1.603-2.527-.606-.783-1.123-1.619-1.782-2.366-1.265-1.513-2.618-2.954-4.097-4.271-.748-.623-1.461-1.317-2.28-1.869-.784-.605-1.568-1.192-2.423-1.69l-1.247-.801c-.409-.25-.855-.463-1.282-.694l-1.3-.694-1.354-.587c-.446-.196-.891-.41-1.336-.588l-1.39-.48c-.463-.16-.926-.338-1.389-.463l-1.425-.373c-.927-.285-1.888-.445-2.85-.605-.962-.214-1.942-.303-2.904-.392-.962-.142-1.942-.142-2.921-.16l-.731-.018-.356-.018h-.053.178-.018l-.107.018h-.196l-1.657.107-1.638.089-1.336.213-1.354.196c-.446.09-.927.214-1.407.32-.945.214-1.889.41-2.797.766-.909.302-1.853.551-2.726.96a35.132 35.132 0 0 0-5.183 2.58 37.342 37.342 0 0 0-4.685 3.346c-1.479 1.246-2.833 2.616-4.097 4.058-.588.765-1.247 1.459-1.782 2.26-.516.8-1.122 1.548-1.603 2.366-.445.855-.98 1.655-1.407 2.51-.392.872-.837 1.708-1.194 2.598l-.997 2.669-.766 2.758-.054.143c-.659 2.402-2.885 3.95-5.272 3.914l-.82-.017h-.107l-.053-.018h-.018c-.231.018.303 0 .232 0h-.018l-.25.018-.463.017-1.906.107c-1.39.018-2.244.249-3.277.392-.98.089-2.084.427-3.153.658-1.087.214-2.102.641-3.136.979-1.068.302-2.048.836-3.063 1.263-1.033.392-1.942 1.015-2.922 1.531l-.712.391-.677.463-1.372.925c-.231.16-.463.303-.677.481l-.641.516-1.265 1.05c-.445.32-.837.729-1.211 1.103l-1.194 1.157c-.766.765-1.425 1.655-2.173 2.473-.677.854-1.265 1.78-1.924 2.669-.587.926-1.104 1.887-1.674 2.812-.499.997-.944 1.993-1.425 2.972l-1.14 3.078-.838 3.168-.534 3.256a5.807 5.807 0 0 1-4.56 4.716h-.036l-.498.107-.66.16c-.463.125-.926.267-1.371.427-.927.303-1.817.676-2.672 1.103-1.71.855-3.26 1.922-4.56 3.15-2.583 2.474-4.133 5.712-4.632 9.521-.035.48-.107.961-.125 1.441l-.053 1.246.071 1.797c.018.142.018.338.036.427l.053.285.178 1.174.178.677c.125.444.179.907.357 1.334.16.445.32.872.463 1.317l.588 1.263a19.428 19.428 0 0 0 3.26 4.538 18.444 18.444 0 0 0 4.524 3.328c1.64.907 3.474 1.477 5.326 1.797.927.214 1.889.214 2.833.303l18.08.267 28.947.533 14.482.321 14.465.409c9.655.285 19.292.498 28.947.854l14.482.534c4.809.16 9.637.356 14.464.57l14.465.658c1.211.053 2.44.142 3.598.142 1.176 0 2.369-.071 3.563-.213a32.146 32.146 0 0 0 7-1.602c-2.173 1.05-4.489 1.887-6.876 2.385a30.947 30.947 0 0 1-3.634.587c-1.246.125-2.44.16-3.651.231l-14.465.641a994.87 994.87 0 0 1-14.464.587l-14.482.516c-9.655.374-19.292.588-28.947.872l-14.465.41-14.482.32-28.947.534-14.464.213-3.634.054c-1.46-.054-2.921-.072-4.364-.321-2.904-.445-5.754-1.281-8.373-2.616a29.714 29.714 0 0 1-7.178-5.053 29.488 29.488 0 0 1-5.255-7.029l-.98-1.994-.784-2.064c-.285-.676-.41-1.406-.605-2.117l-.285-1.068-.197-1.192-.178-1.193-.089-.605c-.018-.213-.018-.32-.035-.48l-.09-1.797-.017-.107v-.641l.018-.534.017-1.067c.036-.712.107-1.424.179-2.136a27.345 27.345 0 0 1 2.387-8.541c1.264-2.759 3.1-5.303 5.255-7.403 2.137-2.136 4.631-3.791 7.214-5.107a32.787 32.787 0 0 1 4.008-1.691 36.094 36.094 0 0 1 2.084-.641c.356-.089.713-.178 1.087-.267l.57-.124c.231-.054.356-.071.712-.125l-4.596 4.734.695-4.235 1.069-4.164c.48-1.353.962-2.705 1.46-4.04.624-1.299 1.212-2.616 1.853-3.879.73-1.246 1.425-2.492 2.191-3.702.855-1.156 1.64-2.349 2.548-3.452.944-1.085 1.834-2.224 2.85-3.221l1.532-1.495c.516-.516 1.015-1.014 1.585-1.459l2.512-2.029c.285-.213.588-.409.89-.605l1.782-1.21.89-.587.944-.534c1.265-.676 2.477-1.441 3.813-1.975 1.318-.569 2.618-1.21 3.99-1.619 1.371-.445 2.725-.944 4.132-1.228 1.408-.303 2.762-.676 4.311-.837 1.479-.195 3.118-.462 4.276-.444l1.888-.072.48-.017.25-.018h.517l1.069.035-5.327 4.04 1.051-3.559c.41-1.157.873-2.314 1.319-3.452.498-1.139 1.068-2.243 1.62-3.346.57-1.103 1.23-2.135 1.853-3.203.66-1.05 1.425-2.029 2.138-3.043.712-.996 1.567-1.886 2.351-2.847a50.02 50.02 0 0 1 5.362-5.09 47.18 47.18 0 0 1 6.092-4.164c1.033-.658 2.191-1.139 3.278-1.708 1.104-.57 2.262-.979 3.42-1.424 1.122-.48 2.333-.8 3.509-1.156 1.176-.374 2.369-.605 3.581-.855.605-.106 1.193-.249 1.817-.338l1.941-.231 1.924-.214 1.657-.053 1.656-.035.606-.018.463.017.926.054c1.212.053 2.441.107 3.652.302 1.212.16 2.423.303 3.616.588 1.194.267 2.405.516 3.563.907l1.746.534c.588.178 1.14.427 1.71.64l1.71.66c.552.248 1.104.533 1.657.782l1.638.8 1.586.926c.516.303 1.051.587 1.55.926l1.514 1.032c1.015.658 1.959 1.423 2.885 2.188.98.73 1.835 1.584 2.708 2.42 1.746 1.673 3.313 3.506 4.756 5.428.748.961 1.372 1.993 2.049 2.99.641 1.014 1.193 2.082 1.781 3.114.535 1.068 1.015 2.171 1.532 3.256.428 1.121.837 2.243 1.247 3.364l-5.326-2.047 1.817-.836c.605-.267 1.247-.481 1.87-.712a25.562 25.562 0 0 1 3.848-1.05c.641-.16 1.3-.249 1.959-.338.642-.089 1.301-.16 1.96-.178.659-.053 1.318-.089 1.977-.053.659 0 1.318 0 1.96.071 1.318.071 2.618.249 3.883.516 1.265.249 2.529.569 3.741.979 2.458.8 4.791 1.868 6.965 3.203a32.827 32.827 0 0 1 3.153 2.153 29.753 29.753 0 0 1 2.868 2.527 28.596 28.596 0 0 1 4.667 6.05c.303.57.623 1.121.89 1.709.268.569.535 1.156.749 1.779l.338.89.285.943c.196.623.321 1.246.445 1.886a21.73 21.73 0 0 1 .374 3.88c0 .64-.071 1.299-.106 1.939-.072.641-.196 1.282-.303 1.922l-1.586-2.295 2.779.747 2.69.997 2.601 1.21 2.458 1.441 2.316 1.655 2.155 1.833c.659.658 1.336 1.317 1.977 1.993.606.73 1.212 1.424 1.8 2.153.516.765 1.086 1.513 1.585 2.296.463.8.962 1.601 1.389 2.42.375.836.802 1.655 1.158 2.509.303.872.642 1.726.909 2.598.231.89.499 1.78.695 2.669.142.89.338 1.798.445 2.687.071.926.16 1.833.214 2.723l-.036 2.705Z"/><path d="M393.106 155.227a48.223 48.223 0 0 0 3.028-5.018c.926-1.709 1.692-3.506 2.387-5.321 1.372-3.63 2.227-7.421 2.618-11.229.196-1.922.303-3.826.25-5.747 0-.214 0-.517-.018-.677l-.053-.729-.125-1.46c-.071-.978-.125-1.957-.321-2.865l-.463-2.776-.712-2.758c-.125-.445-.232-.925-.374-1.37l-.499-1.335c-.339-.872-.588-1.797-.998-2.651l-1.193-2.563c-.392-.854-.909-1.655-1.354-2.473l-.695-1.228-.801-1.175c-.535-.765-1.016-1.565-1.604-2.295l-1.781-2.189c-.588-.73-1.3-1.352-1.924-2.046l-.98-.997-1.051-.925c-.712-.605-1.389-1.264-2.137-1.815l-2.262-1.655c-.731-.57-1.568-.997-2.352-1.495l-1.193-.73c-.41-.231-.82-.427-1.247-.64-.837-.392-1.639-.854-2.494-1.21l-2.583-1.032-.641-.25-.677-.195-1.318-.41c-1.746-.605-3.581-.872-5.38-1.28a3.021 3.021 0 0 1-2.316-3.186l.018-.143c.053-.765.16-1.512.214-2.277-.018-.748.053-1.513-.018-2.278-.089-1.513-.285-3.025-.677-4.502l-.285-1.104c-.107-.373-.249-.73-.374-1.103l-.374-1.085-.481-1.05c-.285-.712-.659-1.406-1.015-2.082-.339-.694-.784-1.335-1.194-2.011a35.56 35.56 0 0 0-2.832-3.737c-1.016-1.192-2.138-2.314-3.314-3.381a41.723 41.723 0 0 0-3.705-2.936 44.976 44.976 0 0 0-4.043-2.51 44.322 44.322 0 0 0-4.258-2.028 40.203 40.203 0 0 0-4.471-1.548 37.086 37.086 0 0 0-4.596-.997c-.766-.142-1.55-.196-2.316-.285-.783-.089-1.549-.106-2.333-.124-.766-.054-1.55-.036-2.316 0l-1.158.053-1.158.125-1.14.106-1.14.196c-.748.125-1.514.267-2.244.48-1.496.339-2.939.837-4.364 1.389-.713.302-1.426.57-2.12.907l-2.031 1.05c-2.173 1.121-4.863.267-5.985-1.904-.071-.107-.107-.231-.161-.338l-.071-.16-1.728-4.164c-.694-1.335-1.336-2.687-2.066-4.004-.802-1.281-1.532-2.598-2.387-3.826l-1.318-1.833c-.428-.605-.837-1.246-1.336-1.797-1.888-2.35-3.919-4.574-6.128-6.584-1.14-.997-2.209-2.03-3.438-2.901l-1.781-1.37c-.588-.463-1.247-.837-1.871-1.246l-1.888-1.228c-.641-.391-1.3-.73-1.959-1.085l-1.978-1.086-2.048-.925c-.677-.303-1.354-.623-2.049-.908l-2.102-.765c-.712-.231-1.407-.534-2.12-.73l-2.155-.604c-.73-.178-1.443-.428-2.173-.552l-2.209-.427c-.73-.107-1.443-.32-2.191-.374l-2.245-.25c-.73-.053-1.478-.213-2.226-.195l-2.227-.071-1.692-.053h-.071c.445-.018.106 0 .195 0h-.195l-.303.017-2.441.125-2.44.142-2.102.32-2.102.285c-.713.107-1.461.32-2.173.463l-2.191.48c-.731.143-1.408.428-2.138.641-1.407.445-2.85.819-4.204 1.441-1.372.588-2.779 1.068-4.079 1.798l-1.978 1.014c-.338.16-.676.32-.997.498l-.944.588c-2.565 1.512-4.97 3.238-7.268 5.125l-1.674 1.459c-.571.48-1.123.96-1.622 1.512l-1.549 1.602c-.535.516-1.069 1.032-1.514 1.62l-1.425 1.708c-.464.57-.962 1.12-1.372 1.744l-1.265 1.815c-.41.623-.891 1.192-1.229 1.85-.73 1.282-1.55 2.527-2.209 3.844-.623 1.335-1.318 2.652-1.888 4.004-.517 1.388-1.069 2.758-1.568 4.146l-1.211 4.253-.053.214a5.49 5.49 0 0 1-5.416 3.95l-.979-.017-.499-.018h-.071.178-.178l-.285.018-2.174.07c-.694.054-1.496.036-2.119.108l-1.871.213c-.641.09-1.247.107-1.888.214l-1.96.356c-.641.142-1.3.213-1.941.373l-1.924.498c-.641.16-1.283.303-1.906.499l-1.888.623c-.624.231-1.265.391-1.871.658l-1.834.747c-1.23.463-2.405 1.086-3.599 1.673-1.193.552-2.316 1.264-3.456 1.922-1.175.623-2.226 1.424-3.331 2.153l-.819.552c-.267.196-.517.41-.766.623l-1.568 1.228c-.267.195-.534.391-.783.605l-.731.676-1.46 1.317c-.517.427-.962.907-1.426 1.388l-1.389 1.423c-.908.944-1.71 1.993-2.583 2.99-.837 1.032-1.585 2.118-2.369 3.185-.748 1.086-1.425 2.225-2.156 3.328l-1.888 3.488-3.99-7.545 3.1.57 3.063.782c.998.32 1.996.658 2.993.997.98.373 1.942.8 2.922 1.192.944.445 1.888.925 2.832 1.388.908.498 1.817 1.05 2.707 1.584.891.57 1.746 1.174 2.619 1.761.837.623 1.639 1.3 2.476 1.94.784.676 1.55 1.388 2.334 2.1l2.191 2.242 2.013 2.385 1.87 2.509 1.674 2.651 1.515 2.741 1.3 2.829 1.104 2.936-7.054-2.722 1.871-.908c.623-.285 1.282-.516 1.924-.783a28.02 28.02 0 0 1 4.008-1.157c.659-.178 1.353-.284 2.03-.391.695-.107 1.39-.178 2.067-.231a26.793 26.793 0 0 1 2.066-.089 19.975 19.975 0 0 1 2.066.035c1.372.071 2.744.232 4.08.481a33.42 33.42 0 0 1 3.954.943 35.409 35.409 0 0 1 7.375 3.239 35.156 35.156 0 0 1 3.349 2.224 35.843 35.843 0 0 1 3.099 2.598c.962.943 1.889 1.94 2.761 2.99a32.422 32.422 0 0 1 2.352 3.381c.338.587.695 1.174.997 1.815.303.623.606 1.263.855 1.922l.392.978.321 1.015c.232.658.392 1.37.534 2.064.321 1.406.463 2.847.499 4.289.018.729-.036 1.459-.071 2.171-.071.729-.196 1.441-.285 2.171l-3.474-5.019c1.122.285 2.28.534 3.385.89l1.656.552c.553.196 1.105.391 1.621.64 1.069.481 2.156.908 3.153 1.513l1.532.854c.481.303.962.623 1.443.943.998.623 1.888 1.353 2.797 2.082.926.694 1.71 1.548 2.565 2.331.819.819 1.568 1.709 2.334 2.563.677.925 1.407 1.815 2.048 2.794.588.979 1.265 1.922 1.746 2.972.534 1.014 1.069 2.046 1.478 3.114.214.534.428 1.067.624 1.601l.516 1.637c.375 1.104.588 2.225.82 3.346l.178.836.321 2.563c.124 1.139.089 2.278.142 3.416v.428l-.018.409-.035.872a54.596 54.596 0 0 1-.143 1.708 35.97 35.97 0 0 1-.534 3.363l-3.492-4.199 31.441.658c10.474.196 20.948.534 31.441.801l15.711.427 15.729.498c5.237.178 10.474.338 15.712.552l15.711.605-15.711.623c-5.238.213-10.475.374-15.712.534l-15.729.516-15.711.427c-10.493.249-20.967.587-31.441.783l-31.441.658c-1.941.036-3.527-1.477-3.562-3.399-.018-.213 0-.427.035-.622l.036-.178c.142-.89.249-1.798.303-2.705.035-.445.053-.89.053-1.353v-1.174l-.018-.16c-.089-.908-.089-1.815-.231-2.705l-.196-1.335-.107-.658-.16-.659c-.214-.872-.392-1.744-.713-2.58l-.445-1.281-.535-1.228c-.338-.836-.783-1.619-1.211-2.385-.392-.818-.962-1.512-1.443-2.277-.499-.73-1.104-1.406-1.639-2.1-.623-.641-1.211-1.317-1.87-1.922-.677-.587-1.283-1.246-2.031-1.744-.712-.534-1.407-1.086-2.191-1.513l-1.122-.711-1.194-.605c-.766-.445-1.603-.73-2.422-1.086-.41-.178-.82-.302-1.247-.427l-1.283-.409c-.837-.232-1.728-.374-2.583-.57-2.244-.551-3.705-2.651-3.473-4.893v-.125l.125-1.281c0-.445.035-.872 0-1.299-.054-.872-.161-1.744-.375-2.598-.106-.427-.213-.872-.391-1.282l-.214-.64-.267-.623a16.453 16.453 0 0 0-.606-1.246c-.214-.427-.481-.801-.713-1.21-1.015-1.566-2.28-3.043-3.705-4.36a27.882 27.882 0 0 0-2.28-1.85 27.894 27.894 0 0 0-2.494-1.584 25.27 25.27 0 0 0-8.265-2.901 22.124 22.124 0 0 0-2.868-.267c-.481-.035-.944-.017-1.425 0-.481 0-.944.036-1.425.089a9.051 9.051 0 0 0-1.39.196c-.463.071-.944.142-1.389.267-.926.214-1.817.516-2.69.836-.428.196-.873.356-1.283.552l-1.264.641c-2.512 1.263-5.576.267-6.841-2.225-.071-.124-.124-.267-.196-.409l-.035-.089-.909-2.26-1.068-2.207-1.194-2.117-1.354-2.047-1.496-1.922-1.621-1.832-1.728-1.727-1.853-1.601-1.941-1.46c-.695-.444-1.372-.907-2.049-1.334l-2.12-1.192c-.748-.338-1.46-.712-2.208-1.05-.749-.285-1.497-.605-2.263-.908l-2.316-.73-2.351-.587-2.405-.427-.32-.053c-2.815-.498-4.685-3.185-4.186-5.98.089-.533.267-1.05.516-1.512.73-1.388 1.461-2.794 2.209-4.164.837-1.334 1.639-2.687 2.512-4.004.926-1.263 1.817-2.58 2.796-3.808 1.016-1.192 1.978-2.456 3.046-3.612l1.639-1.709c.552-.57 1.087-1.138 1.675-1.672l1.745-1.584.891-.8c.303-.25.606-.5.909-.73l1.87-1.477c.303-.25.606-.499.926-.73l.98-.676c1.3-.872 2.565-1.833 3.955-2.598 1.371-.783 2.707-1.638 4.15-2.296 1.407-.712 2.815-1.441 4.293-2.01l2.191-.908c.731-.32 1.496-.534 2.245-.783l2.244-.766c.766-.249 1.532-.409 2.298-.622l2.298-.588c.766-.178 1.55-.302 2.334-.444l2.333-.428c.784-.142 1.621-.195 2.441-.302l2.458-.25c.819-.088 1.478-.07 2.226-.106l2.174-.071.267-.018h.481l.605.018 1.176.018-5.469 4.164 1.479-5.09c.588-1.672 1.247-3.31 1.888-4.965.695-1.619 1.514-3.203 2.263-4.787.819-1.583 1.781-3.078 2.654-4.608.427-.766.979-1.46 1.478-2.19l1.532-2.17c.499-.73 1.087-1.388 1.657-2.082l1.692-2.029c.552-.694 1.194-1.317 1.799-1.94l1.871-1.886c.605-.658 1.282-1.228 1.959-1.797l2.013-1.726c2.761-2.225 5.665-4.253 8.729-6.033l1.14-.676c.392-.231.783-.41 1.175-.605l2.387-1.192c1.55-.837 3.242-1.406 4.881-2.082 1.621-.712 3.331-1.157 5.041-1.69.838-.232 1.675-.553 2.548-.713l2.6-.57c.873-.16 1.71-.373 2.601-.515l2.743-.338 2.744-.32 2.458-.09 2.44-.089h.303l.446-.017h.089l.659.035 3.972.196c.873.018 1.746.196 2.636.285l2.619.338c.873.089 1.728.338 2.601.498l2.583.534c.873.178 1.71.48 2.547.712l2.547.747c.838.267 1.657.605 2.476.908l2.476.943c.802.356 1.586.747 2.387 1.12l2.387 1.122 2.298 1.317c.748.445 1.532.854 2.28 1.317l2.174 1.477c.712.516 1.478.96 2.155 1.512l2.066 1.637c1.408 1.032 2.655 2.278 3.955 3.453 2.547 2.402 4.863 5.036 7.001 7.812.57.658 1.033 1.388 1.532 2.117l1.46 2.171c.944 1.46 1.764 3.025 2.637 4.52.801 1.548 1.496 3.15 2.244 4.734a199.931 199.931 0 0 1 1.853 4.876l-6.199-2.403 2.6-1.228c.873-.409 1.782-.711 2.672-1.067 1.817-.64 3.652-1.21 5.54-1.584.927-.231 1.871-.356 2.833-.498l1.425-.196 2.85-.214 1.425-.017c.962 0 1.906 0 2.868.07.944.072 1.888.108 2.832.25.927.142 1.871.231 2.797.445 1.853.338 3.687.8 5.487 1.352a50.604 50.604 0 0 1 5.254 1.993 50.24 50.24 0 0 1 4.97 2.563 48.538 48.538 0 0 1 8.854 6.798 45.934 45.934 0 0 1 3.758 4.146c1.158 1.477 2.245 3.007 3.189 4.644.463.819.962 1.62 1.336 2.474.427.854.837 1.708 1.158 2.598l.516 1.317.41 1.37c.143.463.303.908.41 1.37l.303 1.388c.391 1.869.57 3.79.605 5.695.036.96-.071 1.922-.107 2.865-.089.96-.267 1.904-.392 2.847l-2.315-3.31c2.03.534 4.079.943 6.021 1.708l1.478.516.731.267.712.32 2.832 1.3c.927.462 1.817.996 2.708 1.512.463.25.908.499 1.354.766l1.282.871c.838.606 1.728 1.14 2.512 1.798l2.405 1.957c.784.676 1.478 1.424 2.227 2.118l1.104 1.085 1.015 1.157c.659.783 1.372 1.53 1.978 2.349l1.817 2.474c.587.836 1.086 1.743 1.621 2.598l.801 1.316.677 1.353c.445.925.944 1.815 1.318 2.758l1.105 2.83c.374.943.588 1.957.89 2.918l.428 1.441c.125.499.196.997.303 1.495.196.997.392 1.975.57 2.972l.32 3.043c.143 1.032.125 1.993.143 2.972l.018 1.477v.729c.018.338-.018.516-.018.801-.071 1.993-.321 3.986-.641 5.961-.321 1.958-.82 3.898-1.408 5.784a42.51 42.51 0 0 1-2.137 5.552c-.855 1.797-1.764 3.559-2.833 5.214a47.808 47.808 0 0 1-3.455 4.769Z"/><path d="M132.852 86.467c.303-.783.606-1.566.927-2.35.338-.765.677-1.53 1.051-2.295.73-1.513 1.496-3.043 2.387-4.484a61.932 61.932 0 0 1 6.021-8.31l-.089 2.384c-.446-.392-.856-.8-1.301-1.175-.463-.355-.908-.73-1.389-1.05-.499-.32-.962-.658-1.461-.943-.517-.267-1.015-.587-1.532-.836-.534-.231-1.033-.498-1.568-.694-.552-.196-1.068-.445-1.621-.587-.552-.143-1.068-.356-1.638-.445-.553-.107-1.105-.267-1.657-.32-.552-.072-1.104-.196-1.657-.196-.552-.018-1.104-.09-1.656-.054-.553.036-1.105 0-1.639.09-.535.088-1.087.106-1.603.249-.517.124-1.051.195-1.568.373-.499.178-1.015.285-1.496.499-.481.213-.98.409-1.461.64l-1.389.765c-1.693.943-3.848.32-4.792-1.37-.036-.071-.089-.142-.125-.231l-.16-.356-.998-2.136c-.392-.694-.748-1.388-1.14-2.064-.445-.64-.837-1.317-1.3-1.957-.499-.605-.926-1.246-1.443-1.833a31.893 31.893 0 0 0-3.296-3.292c-.605-.48-1.157-1.015-1.816-1.442-.624-.445-1.23-.907-1.907-1.28l-.979-.606c-.339-.196-.695-.356-1.033-.534l-1.016-.516-1.069-.445-1.05-.445-1.087-.355c-.357-.107-.713-.25-1.069-.356l-1.104-.267c-.73-.214-1.497-.339-2.245-.445-.73-.16-1.496-.214-2.244-.285-.749-.089-1.514-.071-2.263-.089h-.57l-.285-.018h-.035.196-.107l-.16.018-1.337.089-1.318.089-2.03.32c-.339.054-.713.178-1.087.25-.713.177-1.46.338-2.156.605-.712.23-1.425.444-2.102.765a26.919 26.919 0 0 0-3.99 1.993 27.53 27.53 0 0 0-3.634 2.598 30.992 30.992 0 0 0-3.153 3.15c-.463.569-.98 1.12-1.39 1.726-.409.605-.872 1.192-1.246 1.833-.356.64-.766 1.263-1.105 1.922-.302.676-.64 1.334-.926 2.01l-.784 2.064-.605 2.136-.054.213c-.694 2.456-2.974 4.022-5.415 3.951l-.641-.018h-.125c-.231 0 .303-.018.25-.018h-.036l-.196.018-.374.018-1.532.053c-1.14.018-1.764.196-2.547.285-.749.053-1.604.303-2.44.48-.838.16-1.64.481-2.441.73-.838.231-1.604.64-2.387.961-.802.303-1.514.765-2.28 1.157l-.57.302-.553.356-1.068.712c-.374.214-.713.48-1.034.747l-1.015.801c-.677.534-1.247 1.175-1.888 1.744-.624.605-1.158 1.281-1.746 1.922-.552.64-1.033 1.37-1.567 2.046-.481.712-.909 1.46-1.372 2.19l-1.158 2.313-.962 2.402c-.232.836-.463 1.673-.712 2.51l-.5 2.544-.213 1.067a3.944 3.944 0 0 1-3.901 3.168c-.071 0-.499.071-.802.142-.32.089-.659.161-.997.267-.66.196-1.318.445-1.96.712-1.3.534-2.458 1.264-3.491 2.064-1.105.801-1.87 1.815-2.654 2.865l-.481.855c-.16.284-.357.551-.446.872l-.356.943c-.071.16-.142.32-.196.48l-.107.498c-.142.694-.41 1.335-.427 2.082l-.125 1.086-.071.552v-.178.64c0 .445 0 .926.018 1.317.035.303.07.605.107.908 0 .284.089.658.16.996.089.338.107.712.231 1.032.357 1.388.98 2.705 1.693 3.951.766 1.245 1.745 2.349 2.796 3.381 1.105.996 2.352 1.815 3.688 2.527a19.154 19.154 0 0 0 4.346 1.406l1.14.16.588.071.66.036 2.689.177 5.344.374c3.58.249 7.143.57 10.706.837 1.781.142 3.58.32 5.362.48 1.781.16 3.562.338 5.344.534-1.782.196-3.563.374-5.344.534-1.782.16-3.58.338-5.362.48-3.563.267-7.125.587-10.706.837l-5.344.373-2.69.178-.659.036-.748.018H20.45a22.451 22.451 0 0 1-6.003-1.193c-1.924-.729-3.794-1.672-5.487-2.9-1.674-1.264-3.206-2.723-4.489-4.396-1.247-1.69-2.333-3.541-3.081-5.552-.214-.48-.321-1.014-.5-1.53-.142-.516-.302-.997-.409-1.584l-.303-1.726c-.053-.498-.07-.908-.124-1.352l-.036-.339-.018-.16v-.142l-.018-.231.054-2.349c-.018-1.05.214-2.118.374-3.186l.142-.8c.054-.25.143-.517.214-.783l.499-1.584c.142-.534.41-1.032.641-1.548l.713-1.531c1.175-1.922 2.511-3.808 4.204-5.267 1.656-1.513 3.491-2.776 5.45-3.72a24.82 24.82 0 0 1 2.993-1.28c.5-.179 1.033-.339 1.568-.499.57-.16.997-.285 1.799-.427l-4.097 4.218.48-3.47c.268-1.157.535-2.296.838-3.435.374-1.103.748-2.224 1.14-3.328.499-1.067.962-2.153 1.479-3.22.57-1.015 1.122-2.065 1.745-3.061.677-.961 1.319-1.976 2.049-2.901.766-.89 1.479-1.833 2.316-2.687.855-.819 1.639-1.708 2.565-2.456l1.354-1.139c.445-.391.926-.747 1.407-1.085l1.478-1.014.73-.499.785-.445c1.033-.57 2.03-1.227 3.135-1.672 1.104-.48 2.173-1.015 3.313-1.353 1.122-.391 2.244-.818 3.42-1.05 1.158-.285 2.28-.605 3.58-.747 1.23-.16 2.637-.392 3.563-.392l1.532-.07.392-.019.178-.017h.481l.89.017-5.468 4.165.855-2.972c.356-.961.73-1.922 1.105-2.883.41-.943.89-1.869 1.336-2.794.463-.907 1.015-1.78 1.55-2.67.534-.871 1.157-1.69 1.745-2.526.606-.837 1.3-1.602 1.96-2.403a40.287 40.287 0 0 1 4.47-4.235 39.337 39.337 0 0 1 5.078-3.47c1.799-1.014 3.651-1.922 5.593-2.616.944-.391 1.942-.64 2.921-.943.98-.32 1.995-.498 2.993-.694.517-.107.998-.213 1.532-.285l1.621-.195 1.621-.16 1.354-.054 1.318-.018.57-.017.374.017.766.054c1.015.053 2.03.106 3.046.285.998.142 2.013.266 2.993.516.997.213 1.995.444 2.957.765l1.46.462c.482.143.945.356 1.408.534l1.425.57c.463.213.908.445 1.354.658l1.354.676 1.3.783c.427.267.873.516 1.282.783l1.247.872c.838.552 1.604 1.21 2.37 1.851.783.623 1.496 1.335 2.208 2.029 1.426 1.388 2.708 2.936 3.866 4.537.606.801 1.087 1.655 1.639 2.492.516.836.944 1.726 1.425 2.598.427.872.819 1.797 1.211 2.687.339.925.641 1.868.962 2.794l-5.077-1.958 2.049-.89c.677-.249 1.407-.462 2.102-.676.712-.213 1.443-.338 2.173-.498.713-.16 1.461-.196 2.173-.285.731-.089 1.461-.035 2.191-.07.731-.019 1.461.088 2.174.124.73.035 1.425.213 2.137.302.713.107 1.39.32 2.084.48.695.16 1.354.445 2.013.659.677.214 1.301.552 1.96.819.641.267 1.229.64 1.852.96.624.32 1.194.73 1.782 1.086.587.374 1.122.819 1.674 1.228.552.427 1.051.907 1.568 1.352.498.463.962.98 1.443 1.46.463.516.89 1.067 1.318 1.583l.107.125a1.62 1.62 0 0 1-.179 2.26 79.002 79.002 0 0 0-1.834 1.62 53.247 53.247 0 0 0-1.782 1.708 71.826 71.826 0 0 0-3.349 3.612c-1.051 1.263-2.102 2.545-3.081 3.897-.499.659-.98 1.353-1.443 2.029-.463.694-.926 1.406-1.39 2.1Z"/></g><defs><clipPath id="clip0_263_87"><path fill="#fff" d="M0 0h407v205H0z"/></clipPath></defs></svg>