<svg fill="none" xmlns="http://www.w3.org/2000/svg" viewBox="0 0 323 178"><g clip-path="url(#clip0_263_118)" fill="#fff"><path d="m248.994 101.964-.277-3.214c-.155-1.051-.371-2.102-.541-3.152-.231-1.036-.54-2.07-.802-3.09-.309-1.02-.725-2.01-1.065-3.014-.401-.973-.895-1.916-1.327-2.89-.479-.926-1.034-1.838-1.544-2.75-.571-.896-1.188-1.745-1.775-2.61-.648-.835-1.327-1.639-1.991-2.442-.71-.773-1.466-1.514-2.191-2.271-.772-.696-1.574-1.376-2.362-2.055l-2.531-1.84-2.654-1.606-2.794-1.39-2.886-1.144-2.963-.88-3.025-.619a1.75 1.75 0 0 1-1.389-1.87l.015-.123c.062-.634.139-1.267.17-1.9-.016-.634.031-1.268-.016-1.901-.092-1.252-.262-2.503-.586-3.724l-.247-.927c-.077-.31-.216-.603-.309-.896l-.324-.896-.386-.881c-.247-.587-.555-1.143-.864-1.7-.278-.572-.648-1.097-.988-1.638a26.184 26.184 0 0 0-2.315-3.074 30.647 30.647 0 0 0-5.741-5.176 32.55 32.55 0 0 0-3.288-2.04 31.486 31.486 0 0 0-3.503-1.654 33.743 33.743 0 0 0-3.643-1.236 34.348 34.348 0 0 0-3.75-.788c-.617-.123-1.266-.154-1.883-.216-.633-.077-1.265-.077-1.898-.093-.633-.046-1.266-.015-1.899.016l-.941.046-.942.093-.926.108-.926.17c-.617.108-1.234.2-1.836.386-1.22.278-2.408.68-3.565 1.128-.556.247-1.143.464-1.714.742l-1.651.85c-1.59.819-3.534.2-4.352-1.375-.047-.078-.078-.17-.124-.248l-.046-.108-1.405-3.384c-.571-1.097-1.08-2.194-1.667-3.26-.663-1.035-1.25-2.117-1.929-3.106l-1.065-1.498c-.37-.495-.694-.99-1.111-1.453-1.528-1.885-3.195-3.677-5-5.3-.911-.803-1.791-1.638-2.794-2.348l-1.451-1.082c-.478-.386-1.018-.68-1.512-1.02l-1.528-.973c-.525-.325-1.065-.587-1.59-.88l-1.605-.866-1.652-.757c-.555-.232-1.095-.495-1.651-.726l-1.713-.619c-.571-.2-1.127-.432-1.698-.602l-1.759-.48c-.587-.138-1.158-.34-1.744-.447l-1.791-.34c-.586-.093-1.173-.263-1.775-.31l-1.805-.2c-.602-.046-1.189-.17-1.791-.17l-1.821-.046-.895-.031-.463-.016h-.046.139-.155l-.247.016-3.92.216-1.713.247-1.698.247c-.586.093-1.173.263-1.759.387l-1.76.401c-.586.109-1.142.34-1.728.51-1.127.371-2.3.696-3.38 1.19-1.112.48-2.238.865-3.288 1.468l-1.605.819c-.262.139-.54.278-.787.417l-.772.48a48.395 48.395 0 0 0-5.85 4.156l-1.342 1.19c-.463.386-.91.772-1.312 1.22l-1.25 1.282c-.417.433-.849.85-1.204 1.33l-1.142 1.374c-.386.464-.787.912-1.111 1.422l-1.019 1.468c-.324.494-.71.958-.987 1.483-.587 1.05-1.235 2.055-1.76 3.121-.51 1.082-1.05 2.133-1.512 3.245-.402 1.113-.85 2.225-1.25 3.338l-.973 3.43-.046.17a4.408 4.408 0 0 1-4.322 3.167l-1.034-.03h-.216c-.185 0 .247-.016.185 0h-.03l-.85.03-2.268.108c-1.605.016-2.778.31-4.105.464-1.266.124-2.624.525-3.967.834-1.358.263-2.64.773-3.936 1.206-1.327.386-2.562 1.02-3.812 1.56l-.957.417c-.308.14-.602.325-.895.495l-1.806 1.004-.91.495-2.562 1.73c-.278.201-.571.371-.85.587l-.802.65-1.605 1.313c-.556.401-1.034.896-1.512 1.39l-1.482 1.437c-.525.448-.926 1.005-1.39 1.53l-1.342 1.56a5.509 5.509 0 0 0-.633.82l-.602.834-1.203 1.684c-.741 1.143-1.405 2.364-2.115 3.538-.617 1.221-1.173 2.488-1.775 3.724l-1.435 3.863-1.065 3.987-.68 4.063-.015.046c-.324 1.916-1.82 3.338-3.611 3.693l-.587.109c-.216.046-.463.108-.694.17-.479.108-.957.247-1.435.401-.957.294-1.914.65-2.825 1.035a25.779 25.779 0 0 0-5.17 2.952c-1.559 1.174-2.979 2.503-4.152 4.002a20.187 20.187 0 0 0-2.84 4.99c-.71 1.793-1.173 3.724-1.42 5.717l-.154 1.515-.062 1.529-.015.186v.108c0 .185-.016-.216 0-.155v.047l.046 1.298.046.865c0 .278 0 .618.047.803l.216 1.345c.03.232.046.448.092.68l.186.726.355 1.437.493 1.406.248.695c.077.232.2.448.308.68l.633 1.344c.216.448.494.866.74 1.298.263.417.495.866.803 1.252 2.3 3.245 5.371 6.01 8.967 7.756 1.775.974 3.704 1.546 5.65 2.055l1.496.248c.479.092.988.185 1.497.185l1.513.108c.231.031.525.031.818.031l.864.016 27.797.432c4.63.047 9.26.17 13.89.263l13.906.293 13.89.294 13.891.371 13.906.371 13.89.448c4.631.154 9.261.278 13.906.463l13.891.557-13.891.556c-4.645.185-9.275.309-13.906.463l-13.89.448-13.906.371-13.891.371-27.796.587c-4.63.093-9.26.217-13.89.278l-27.797.418-.864.015c-.278 0-.571.016-.91 0l-1.96-.077c-.649 0-1.297-.093-1.945-.186l-1.945-.278c-2.562-.556-5.109-1.267-7.47-2.441-4.77-2.225-8.875-5.748-11.977-9.997-.417-.51-.74-1.082-1.096-1.638-.34-.556-.71-1.112-1.018-1.684l-.88-1.777c-.139-.294-.309-.587-.417-.896l-.355-.927-.694-1.854-.51-1.916-.262-.958c-.077-.325-.108-.68-.17-1.02l-.324-2.086c-.54-4.914-.092-10.322 1.775-15.359a27.586 27.586 0 0 1 3.874-7.092c1.62-2.179 3.565-4.08 5.695-5.702a34.15 34.15 0 0 1 6.822-4.002 38.956 38.956 0 0 1 3.673-1.39c.633-.201 1.266-.386 1.898-.556.325-.078.664-.155.988-.232l.525-.108.617-.109-3.627 3.724.772-4.851 1.22-4.775c.555-1.545 1.095-3.106 1.666-4.635.695-1.5 1.374-2.998 2.115-4.466.833-1.421 1.62-2.858 2.515-4.249l1.42-2.009.726-1.004c.231-.34.478-.664.74-.973l1.606-1.885c.54-.618 1.05-1.267 1.651-1.824l1.76-1.73c.586-.572 1.172-1.16 1.82-1.669l1.915-1.56.956-.789c.325-.247.664-.463 1.004-.695l2.052-1.39 1.019-.696 3.241-1.808c.37-.185.71-.401 1.096-.571l1.127-.51c1.512-.65 2.994-1.39 4.568-1.854 1.574-.51 3.118-1.113 4.738-1.437 1.605-.371 3.164-.804 4.908-.99 1.683-.231 3.488-.525 4.924-.525l2.253-.108.571-.015.293-.016.278-.015h.077l.14.015 1.25.031-4.368 3.322 1.188-4.11c.463-1.329 1.003-2.658 1.512-3.986.571-1.314 1.22-2.58 1.837-3.863.648-1.252 1.435-2.457 2.145-3.693.34-.618.787-1.174 1.189-1.761l1.234-1.746c.402-.588.88-1.128 1.328-1.67l1.373-1.637c.448-.556.957-1.05 1.451-1.56l1.513-1.515c.478-.51 1.018-.973 1.559-1.437l1.62-1.39c2.207-1.793 4.553-3.43 7.023-4.837l.91-.556c.309-.17.633-.31.957-.479l1.914-.943c1.25-.664 2.608-1.128 3.92-1.653 1.296-.572 2.685-.927 4.044-1.344.679-.186 1.342-.448 2.052-.572l2.084-.432c.694-.14 1.374-.31 2.099-.418l2.192-.278L120.6.448l1.96-.077 1.976-.062.247-.016h.416l.525.031 1.065.047 2.115.092c.71.016 1.404.17 2.114.232l2.099.278c.71.078 1.389.263 2.084.402l2.083.433c.695.139 1.358.386 2.037.571l2.038.603c.679.2 1.327.479 1.991.726l1.975.757c.648.278 1.281.603 1.914.897l1.914.911 1.836 1.05c.602.356 1.235.696 1.822 1.082l1.744 1.19c.571.402 1.173.773 1.713 1.22l1.651 1.314c1.127.85 2.115 1.854 3.149 2.797a53.558 53.558 0 0 1 5.556 6.289c.448.54.833 1.128 1.219 1.715l1.173 1.746c.756 1.174 1.405 2.41 2.099 3.615.633 1.252 1.204 2.519 1.806 3.786.509 1.298.988 2.611 1.482 3.91l-4.523-1.747 2.069-.989c.694-.309 1.435-.556 2.145-.85 1.435-.51 2.901-.958 4.399-1.251.74-.185 1.497-.294 2.253-.402l1.142-.154 1.142-.078 1.127-.077h1.142c.756-.015 1.512 0 2.269.062.756.062 1.512.093 2.253.216.756.108 1.497.186 2.238.356 1.482.278 2.932.664 4.352 1.112a43.77 43.77 0 0 1 4.167 1.607 41.629 41.629 0 0 1 3.952 2.07c1.265.773 2.5 1.607 3.673 2.504a40.313 40.313 0 0 1 3.364 2.92 37.594 37.594 0 0 1 2.979 3.291c.911 1.174 1.775 2.395 2.516 3.693.355.649.741 1.282 1.049 1.978.324.664.649 1.344.895 2.055l.402 1.05.324 1.082c.092.355.216.71.309 1.082l.231 1.112c.309 1.468.432 2.967.463 4.481.016.757-.077 1.499-.108 2.256-.077.742-.216 1.483-.324 2.225l-1.389-1.993 3.272.865 3.179 1.128 3.056 1.406 2.917 1.653 2.747 1.916 2.562 2.133c.788.788 1.59 1.56 2.362 2.348.71.85 1.451 1.669 2.145 2.519.633.912 1.297 1.792 1.914 2.704.556.942 1.142 1.87 1.667 2.843.463.989.988 1.962 1.404 2.967.371 1.035.803 2.04 1.127 3.074.293 1.051.617 2.086.864 3.153.185 1.066.417 2.132.571 3.198.108 1.082.232 2.163.293 3.245v3.214ZM230.505 155.673s.478-.124 1.373-.371c.911-.216 2.223-.51 3.921-.865 1.697-.325 3.766-.68 6.158-1.066a177.2 177.2 0 0 1 7.995-1.098c2.947-.37 6.142-.679 9.522-.988 3.38-.294 6.945-.572 10.65-.758 3.688-.216 7.516-.339 11.421-.417 3.904-.046 7.871-.062 11.853.093 3.997.139 7.995.386 12.007.958 2.022.294 4.044.618 6.205 1.298l.833.293c.278.109.571.232.865.356.308.154.586.263.926.479l.247.139.308.185.571.387.371.262c.247.17.478.356.694.526.432.34.865.71 1.281 1.097 1.636 1.56 3.087 3.507 3.905 5.794.833 2.256 1.003 4.805.432 7.061a12.14 12.14 0 0 1-3.21 5.764c-1.513 1.514-3.396 2.565-5.371 3.028-1.991.479-4.059.263-5.726-.417a9.296 9.296 0 0 1-2.207-1.267l-.309-.232-.092-.062-.016-.015-.092-.077-.34-.325c-.231-.232-.571-.556-.818-.834a10.564 10.564 0 0 1-1.235-1.777 8.827 8.827 0 0 1-.71-1.916 7.347 7.347 0 0 1 .047-3.399c.494-1.932 1.342-3.106 1.96-3.848.617-.742 1.018-1.051 1.018-1.051s-.2.479-.447 1.36c-.216.881-.54 2.194-.355 3.708.046.371.123.758.231 1.128.124.371.294.727.479 1.067.401.679 1.003 1.267 1.775 1.792 1.651 1.128 3.534 1.483 5.201.695.849-.371 1.636-1.02 2.269-1.854.617-.834 1.049-1.839 1.188-2.858.293-2.071-.54-4.219-2.624-6.15a9.179 9.179 0 0 0-.802-.711c-.155-.123-.278-.232-.417-.324l-.201-.155-.293-.201-.278-.201c.093.062.016.016.031.031l-.031-.031-.061-.03c-.062-.047-.216-.109-.324-.17l-.433-.17-.509-.186c-1.451-.479-3.226-.85-5.016-1.143-1.806-.309-3.673-.526-5.572-.726a136.753 136.753 0 0 0-5.726-.526c-3.858-.278-7.732-.525-11.575-.68-3.828-.185-7.593-.293-11.267-.401-7.315-.201-14.168-.325-20.048-.387-2.933-.015-5.634-.031-8.026-.046-2.392 0-4.476.031-6.189.062a98.944 98.944 0 0 0-3.997.108c-.926.031-1.42.062-1.42.062Z"/><path d="M189.497 121.494s.494.016 1.42.062c.926.046 2.269.093 3.997.108 1.714.031 3.797.062 6.189.047 2.393-.016 5.094-.031 8.026-.047 5.88-.061 12.733-.17 20.049-.371 3.673-.123 7.439-.231 11.282-.417 3.827-.154 7.701-.401 11.56-.664 1.929-.155 3.843-.325 5.726-.525 1.898-.201 3.766-.433 5.571-.727 1.791-.293 3.565-.68 5.016-1.143l.51-.186.432-.185c.108-.062.262-.124.324-.17l.077-.046h.015c-.015 0 .062-.047-.03.015l.571-.402.2-.154c.139-.093.263-.201.417-.309.278-.232.556-.479.803-.726 2.083-1.916 2.917-4.079 2.623-6.134a6.31 6.31 0 0 0-1.188-2.874c-.633-.819-1.42-1.484-2.269-1.855-1.667-.788-3.534-.417-5.201.711-.772.51-1.374 1.113-1.775 1.793a6.543 6.543 0 0 0-.478 1.066c-.108.37-.186.741-.232 1.112-.185 1.514.139 2.843.355 3.724.247.881.448 1.344.448 1.344s-.402-.309-1.019-1.05c-.602-.742-1.466-1.916-1.976-3.832a7.594 7.594 0 0 1-.03-3.4 8.724 8.724 0 0 1 .71-1.916 10.5 10.5 0 0 1 1.234-1.777c.247-.278.587-.602.818-.834l.34-.324.092-.078.016-.031.092-.061.062-.047.232-.185a10.31 10.31 0 0 1 2.222-1.267 9.538 9.538 0 0 1 5.726-.417 11.131 11.131 0 0 1 5.371 3.044 12.129 12.129 0 0 1 3.21 5.763c.571 2.256.402 4.79-.432 7.061-.818 2.272-2.269 4.234-3.905 5.794-.416.387-.848.758-1.281 1.097-.216.17-.463.34-.71.526l-.355.247-.293.201-.278.185-.308.186-.247.154c-.34.201-.618.309-.926.479-.293.124-.587.232-.865.356l-.833.278c-2.161.695-4.167 1.02-6.189 1.313-4.028.572-8.026.804-12.023.958-3.982.155-7.948.124-11.853.093-3.905-.093-7.732-.216-11.421-.433-3.704-.185-7.27-.463-10.65-.741-3.38-.309-6.574-.634-9.522-.989a242.063 242.063 0 0 1-7.995-1.097c-2.392-.387-4.46-.742-6.158-1.082a82.932 82.932 0 0 1-3.92-.865l-1.374-.356ZM175.915 138.599s.556-.077 1.621-.216c1.049-.108 2.592-.325 4.553-.51 1.96-.201 4.352-.448 7.084-.68 2.732-.247 5.818-.479 9.198-.711a624.364 624.364 0 0 1 22.997-1.128c2.114-.077 4.244-.123 6.42-.17 2.161-.062 4.353-.108 6.56-.139 4.414-.077 8.905-.093 13.396-.108 4.492.015 8.983.015 13.397.108 2.222.031 4.399.062 6.575.124 2.16.062 4.306.092 6.405.17 8.427.278 16.282.68 23.012 1.128 3.364.231 6.451.479 9.183.71 2.747.232 5.124.495 7.084.696 1.975.185 3.519.386 4.568.51 1.05.139 1.606.216 1.606.216s-.556.062-1.606.201c-1.049.123-2.593.34-4.568.525-1.96.201-4.337.448-7.084.68-2.732.247-5.819.479-9.183.711-6.73.463-14.585.85-23.012 1.128-2.099.077-4.245.123-6.405.17-2.176.062-4.353.108-6.575.123-4.414.093-8.905.093-13.397.124-4.491-.031-8.982-.046-13.396-.124-2.207-.015-4.399-.077-6.56-.123-2.176-.062-4.306-.108-6.42-.186a619.977 619.977 0 0 1-22.997-1.128 567.72 567.72 0 0 1-9.198-.695c-2.732-.232-5.124-.494-7.084-.68-1.961-.185-3.504-.402-4.553-.525a97.691 97.691 0 0 0-1.621-.201Z"/></g><defs><clipPath id="clip0_263_118"><path fill="#fff" d="M0 0h323v178H0z"/></clipPath></defs></svg>