<svg fill="none" xmlns="http://www.w3.org/2000/svg" viewBox="0 0 547 985"><path d="m250.794 824.453 6.097 92.116c.142 2.308 2.136 4.047 4.444 3.904l98.261-6.498-5.527-83.423 46.153-3.05 5.527 83.395 27.435-1.796c2.308-.171 4.046-2.166 3.903-4.474l-6.096-92.116-96.039-84.278-84.158 96.22Zm76.694 46.884-41.652 2.765-2.564-38.847 41.652-2.765 2.564 38.847Z" fill="#fff"/><path d="M447.058 778.167 331.476 676.333l-47.72 54.807-1.481-22.63c-.342-5.301-4.9-9.291-10.171-8.949-5.242.342-9.231 4.931-8.86 10.203l2.763 41.783-35.669 40.985c-4.33 4.987-3.846 12.569 1.111 16.929 2.479 2.166 5.613 3.135 8.661 2.936 3.049-.2 6.011-1.568 8.177-4.047l85.44-98.158 97.634 86.016c4.957 4.389 12.478 3.876 16.809-1.111 4.33-4.988 3.846-12.569-1.112-16.93Z" fill="#fff"/><path d="m268.087 717.346 217.974-461.747" stroke="#fff" stroke-width=".990369" stroke-linecap="round"/><path d="M267.916 721.877 432.7 227.126" stroke="#fff" stroke-width=".994411" stroke-linecap="round"/><path d="M276.947 717.346 68.0332 251.466" stroke="#fff" stroke-width=".993546" stroke-linecap="round"/><path d="M270.195 695.457 151.166 204.496" stroke="#fff" stroke-width=".995131" stroke-linecap="round"/><path d="M269.939 704.264 59.4576 174.142" stroke="#fff" stroke-width=".993746" stroke-linecap="round"/><path d="m275.095 717.773-52.506-600.69" stroke="#fff" stroke-width=".993063" stroke-linecap="round"/><path d="m267.432 717.146 87.776-591.114" stroke="#fff" stroke-width=".991322" stroke-linecap="round"/><path d="m276.32 699.96 59.886-600.0352" stroke="#fff" stroke-width=".991541" stroke-linecap="round"/><path d="m276.805 716.576 230.053-592.425" stroke="#fff" stroke-width=".99245" stroke-linecap="round"/><path d="M270.48 683.999 184.527 54.3229" stroke="#fff" stroke-width=".994757" stroke-linecap="round"/></svg>