<svg xmlns="http://www.w3.org/2000/svg" viewBox="0 0 43.5 45" version="1.0"><defs><clipPath id="a"><path d="M4 10h35v34.742H4Zm0 0"/></clipPath><clipPath id="b"><path d="M0 .254h43.004V25H0Zm0 0"/></clipPath></defs><g clip-path="url(#a)"><path d="M4.477 27.078v17.383c0 .437.355.793.796.793H24.06V29.516h8.828v15.738h5.25a.794.794 0 0 0 .797-.793V27.078l-17.22-17.023Zm14.011 9.77h-7.965v-7.332h7.965Zm0 0"/></g><g clip-path="url(#b)"><path d="M42.422 20.828 21.707.258 11.934 9.96V5.69c0-.996-.817-1.808-1.82-1.808-1.005 0-1.821.812-1.821 1.808v7.887l-7.305 7.25a2.245 2.245 0 0 0 0 3.195 2.281 2.281 0 0 0 3.219 0l17.5-17.375 17.5 17.375a2.282 2.282 0 0 0 3.215 0 2.252 2.252 0 0 0 0-3.195Zm0 0"/></g></svg>