<svg xmlns="http://www.w3.org/2000/svg" viewBox="0 0 75 48" version="1.0"><defs><clipPath id="a"><path d="M.766 0h73.468v47H.766Zm0 0"/></clipPath></defs><g clip-path="url(#a)"><path d="M18.77 27.566c-.032.122-.114.176-.22.11-.124-.074-.234-.18-.359-.262-.015-.012-.078.043-.128.074l.3.438-.133.176c.2.433.602.738.77 1.195.008.015-.016.039-.023.058-.024.012-.055.04-.063.036-.394-.32-.594-.813-.953-1.157-.137.075-.07.168-.055.254.035.192.278.305.207.547-.207.043-.215-.164-.312-.25-.11-.101-.172-.254-.328-.308-.137.039-.246.117-.153.265.137.207.301.399.453.594-.05.086-.226.055-.195.187.055.25-.066.172-.18.11-.058-.031-.105-.04-.125.012-.015.043-.027.105-.007.136.21.282.437.555.582.864-.094.171-.168.09-.239.023-.07-.066-.109-.176-.234-.164-.117-.363-.117-.363-.54-.695.126.398.126.398.556.68l-.23.378c-.13.067-.208 0-.282-.066-.168-.153-.332-.313-.504-.461-.016-.012-.082.035-.133.062.406.668.938 1.25 1.29 1.953-.04.083-.095.102-.165.043-.262-.218-.394-.53-.586-.8-.207-.29-.41-.575-.71-.797-.055.379-.055.379.636 1.148-.078.121-.164.078-.242.008-.176-.16-.352-.328-.535-.5-.094.223.082.309.148.43.113.21.043.258-.16.21-.023.192-.176.18-.332.2.191.422.562.719.754 1.098-.078.132-.152.113-.203.054a57.302 57.302 0 0 1-.867-1.066c-.047-.059-.075-.133-.125-.23-.125.253-.125.253.402 1.003-.04.082-.106.102-.172.043-.184-.168-.36-.347-.559-.539.012.258.012.258.528.82-.055.079-.125.067-.188.016-.152-.113-.25-.305-.449-.348-.113.141-.016.211.043.286.094.117.203.226.309.336-.11.195.02.328.113.468.008.012-.012.043-.024.055-.015.012-.05.035-.062.027a.715.715 0 0 1-.195-.101c-.25-.211-.5-.43-.73-.633-.223.047-.04.441-.466.25l.278.414c-.036.023-.086.074-.106.063-.133-.067-.258-.149-.39-.231a2.519 2.519 0 0 1-1.102.48c-.219.032-.426.165-.64.239-.106.035-.192-.024-.247-.117-.027-.094.032-.157.098-.184.23-.105.46-.219.703-.285.36-.094.649-.293.91-.54.313-.296.625-.593.887-.945.488-.656.976-1.308 1.387-2.02.418-.73.875-1.437 1.238-2.19-.043-.184-.176-.227-.324-.243-.106.121.117.223.015.344-.043.016-.101.067-.129.05-.238-.124-.484-.081-.726-.023-.192.047-.375.13-.508.176-.289 0-.379-.254-.57-.293-.094.059-.11.121-.051.192.148.172.371.27.477.492-.032.152-.125.234-.258.125-.176-.14-.328-.317-.477-.461a1.546 1.546 0 0 0-.668.176c-.172-.04-.27-.235-.445-.227-.043.035-.078.055-.074.07.015.196.21.278.28.438.017.035-.01.094-.03.137-.008.02-.04.05-.055.047-.07-.02-.14-.06-.215-.075-.148-.027-.297-.058-.422.07.004.25.211.329.371.446.063.047.082.121.004.191-.062.067-.129.07-.199.004a2.04 2.04 0 0 1-.168-.152c-.18-.176-.36-.36-.547-.527a.131.131 0 0 0-.21.012c.015.218.28.273.331.476-.011.183-.215.2-.3.316-.09.168.214.317.019.485-.14.015-.207-.114-.312-.172-.051.031-.07.082-.024.129.156.164.332.316.48.484.051.059-.003.14-.093.191-.223-.027-.332-.257-.516-.367-.133.133.117.227.004.352-.187.16-.285-.172-.465-.094-.058.145.012.328-.156.45-.125.085-.016.308-.176.398-.144 0-.215-.117-.297-.211-.086-.094-.16-.176-.363-.203.168.422.434.683.691.93-.011.07-.007.124-.03.16-.024.03-.083.054-.126.078-.652-.79-.652-.79-.886-.797-.047.183.34.281.105.504-.172-.043-.254-.344-.504-.2.035.27.293.375.348.606-.305.344-.305.344-.871-.02-.059.168.109.196.164.282.062.109.039.187-.067.277l-.398-.332c-.09.043-.074.121-.031.172.168.195.347.37.504.57.042.05-.004.137-.118.18-.082-.07-.175-.149-.27-.235-.073-.062-.14-.144-.253-.117-.027.211-.027.211.168.52 0 .16-.203.14-.23.254.093.492.644.668.726 1.152 0 .02-.024.043-.05.09-.345-.098-.462-.422-.661-.66-.207-.254-.352-.567-.656-.778-.215.067-.348.27-.535.383-.243-.035-.332-.312-.543-.367-.098.05-.149.113-.106.188.113.207.324.312.492.468.118.106.047.227-.086.301-.195.023-.25-.254-.453-.219-.004-.164-.105-.27-.215-.37-.058-.056-.144-.079-.18.01a.224.224 0 0 0 .02.2c.098.14.227.188.39.145-.042.328-.327.43-.558.597l-.363-.379c-.05-.054-.21-.035-.203.016.008.05.004.105.031.133.14.144.29.281.426.41-.106.453-.106.453.148.758.036.035.07.074.098.117.023.047.04.098.047.148l-.168.145c-.117-.145-.227-.29-.344-.418-.05-.059-.129-.145-.176-.133-.336.086-.543-.144-.746-.398-.136.27.028.312.09.402.047.063.106.113.152.168.047.059.032.2-.023.203a.285.285 0 0 1-.129-.008c-.16-.082-.23-.28-.426-.308-.07.02-.082.054-.03.11l1.05 1.077c.008.145-.055.207-.168.235-.32-.149-.367-.61-.758-.68-.117.082.086.262-.183.336-.18.012-.243-.316-.473-.336-.086.031-.152.11-.117.172.047.078.152.125.226.191.106.098.164.25.04.328-.223.137.074.383-.106.461-.168.075-.313.16-.41.305-.121.176-.215.375-.426.496l.36.52a.55.55 0 0 1-.067.125c-.106.097-.192.02-.254-.055-.14-.176-.219-.402-.422-.527-.187.07.004.296-.195.39l-.281-.195c-.106.11-.004.18.042.262.043.074.051.148-.019.199a.127.127 0 0 1-.129.012c-.312-.204-.57-.157-.785.156-.035.054-.11.086-.172.125-.016-.059-.055-.117-.035-.149a1.89 1.89 0 0 1 .21-.32c.712-.836 1.27-1.785 2.005-2.605.226-.246.422-.508.593-.797.551-.953 1.36-1.64 2.23-2.274a17.161 17.161 0 0 1 1.61-1.015 7.737 7.737 0 0 0 2.438-2.176 46.3 46.3 0 0 1 1.015-1.336 4.541 4.541 0 0 1 2.223-1.55 11.706 11.706 0 0 1 2.23-.454c.528-.059 1.06-.121 1.59-.172a.659.659 0 0 0 .559-.344c.215-.347.457-.675.66-1.03.434-.74 1.11-1.18 1.852-1.528.234-.113.48-.164.738-.153.23.02.457.008.688.008.718.008 1.402-.183 2.097-.336.188-.043.313-.164.445-.28a16.087 16.087 0 0 0 1.903-2.09 82.83 82.83 0 0 1 1.472-1.856 9.89 9.89 0 0 0 .938-1.395c.398-.71.863-1.386 1.277-2.09.903-1.543 1.797-3.09 2.508-4.738.219-.515.5-1.004.774-1.496.265-.473.64-.855 1.046-1.21.38-.34.79-.642 1.23-.903a66.569 66.569 0 0 0 1.954-1.184c.215-.133.402-.312.605-.465.422-.328.848-.648 1.27-.972.43-.325.809-.696 1.14-1.121.204-.262.43-.508.657-.75.402-.434.863-.79 1.422-1.004.187-.078.367-.168.547-.27a6.689 6.689 0 0 1 1.687-.664c.86-.207 1.715-.46 2.52-.851.668-.329 1.41-.41 2.12-.59.372-.094.763-.008 1.13.097.3.09.543.305.722.547.641.856 1.332 1.68 1.864 2.613.48.844.914 1.711 1.433 2.532.285.449.492.949.778 1.402a50.954 50.954 0 0 1 3.027 5.582c.379.813.887 1.547 1.277 2.352.223.457.473.902.7 1.359.183.371.456.676.726.977.477.527.957 1.046 1.566 1.441.922.594 1.809 1.238 2.594 2.012.035.035.07.07.11.105 1.293 1.024 2.12 2.39 2.828 3.852.12.25.254.5.382.75.336.633.626 1.285.868 1.957.488 1.37 1.011 2.73 1.523 4.09.059.144.106.289.149.437.23.918.746 1.668 1.378 2.344.07.074.157.14.2.23.316.614.62 1.23.925 1.852a.24.24 0 0 1 .012.148.19.19 0 0 1-.074.121.153.153 0 0 1-.137-.003c-.152-.11-.203-.29-.285-.446-.297-.562-.598-1.125-.992-1.633-.14-.18-.29-.355-.43-.535-.398-.504-.71-1.054-.86-1.691-.034-.149-.109-.281-.163-.426-.153-.406-.317-.809-.446-1.223-.335-1.07-.753-2.109-1.164-3.152a27.687 27.687 0 0 0-1.03-2.3c-.505-1-1.067-1.977-1.735-2.884-.352-.472-.828-.828-1.246-1.234-.828-.805-1.805-1.41-2.72-2.098-.69-.52-1.386-1.039-1.886-1.765-.113-.168-.23-.336-.332-.516-.566-1.023-1.14-2.047-1.695-3.082-.313-.586-.59-1.187-.883-1.781a46.831 46.831 0 0 0-1.535-2.824c-.64-1.102-1.266-2.211-1.89-3.325-.5-.89-.985-1.789-1.477-2.683a1.025 1.025 0 0 0-.117-.2c-.47-.636-.934-1.277-1.415-1.906-.105-.136-.218-.28-.398-.336-.02.016-.039.032-.059.051.098.145.196.29.293.426-.07.098-.136.086-.199.023-.273-.261-.496-.574-.836-.761-.02.031-.047.062-.043.07.102.176.211.348.344.566l-.168.11c.004.047-.008.101.016.137.093.152.195.296.297.441a.33.33 0 0 1 .054.293l.016-.016c-.223-.058-.297-.27-.422-.422-.125-.148-.227-.34-.414-.457l-.168.235c-.277-.184-.344-.567-.656-.711-.016-.008-.043.012-.078.023-.055.145.078.219.136.313.086.148.055.297.051.445-.004.106-.144.16-.234.102-.27-.168-.426-.43-.606-.676a.114.114 0 0 0-.125-.027c-.031.015-.07.093-.058.117.113.199.234.394.355.586.078.129.219.214.215.386-.23-.058-.262-.086-.535-.406-.145-.172-.242-.39-.45-.504-.09.012-.18.078-.144.145.113.222.258.433.39.652.051.082.141.145.09.3-.37-.163-.464-.612-.812-.8-.078.258.223.348.207.543-.012.168-.105.328-.09.512.012.199.125.336.25.46.422.415.723.919 1.051 1.407.059.094.148.203.082.336a.178.178 0 0 1-.078.02.106.106 0 0 1-.063-.032c-.273-.367-.511-.77-.828-1.097-.566-.586-.996-1.29-1.57-1.868-.012-.015-.047-.011-.07-.004a.538.538 0 0 0-.094.055c.125.45.633.703.695 1.27-.437-.184-.496-.672-.847-.84-.13.137.09.23.007.367l-.277.055c-.062.03-.043.066-.031.129.058.296.234.543.386.836-.246.023-.28-.149-.367-.25-.097-.114-.183-.243-.28-.36a5.104 5.104 0 0 0-.306-.348c-.105-.109-.187-.234-.343-.277-.153.215.074.324.12.48.048.157.282.239.208.462-.125.03-.149-.094-.219-.149-.098-.078-.184-.172-.29-.238-.077-.05-.151-.145-.292-.078l.207.414c-.059.066-.094.054-.14.004-.165-.16-.329-.32-.5-.47-.02-.019-.083.02-.172.04.292.422.578.832.867 1.242.058.086.136.156.125.27a.092.092 0 0 1-.047.054c-.012.012-.051.016-.059.008-.152-.199-.304-.402-.457-.601-.097-.121-.27-.133-.34-.063-.148.152-.32.16-.496.215-.258.082-.32-.23-.523-.203-.02.02-.043.035-.051.058a.098.098 0 0 0 .004.075c.246.414.496.828.734 1.23-.058.13-.129.078-.172.024a8.404 8.404 0 0 1-.418-.547 2.263 2.263 0 0 0-.52-.555c-.108.098-.038.18.017.258.117.168.234.332.351.496-.2.238-.226-.11-.465.023l-.097.11c-.22-.203-.434-.407-.711-.664.093.289.101.3.316.523.145.145.3.281.426.442.125.16.238.332.336.507.101.168.277.317.117.582-.36-.543-.64-1.132-1.2-1.48-.152.082-.109.219-.05.312.11.176.254.325.367.493.16.226.309.464.461.695l-.242.344c.133.543.426 1.027.676 1.523.539 1.07 1.105 2.129 1.535 3.254.129.332.289.652.445.977.278.578.473 1.183.66 1.793.328 1.05.532 2.128.746 3.207.043.253.055.507.036.765-.032.543.066 1.07.171 1.594.149.727.555 1.316 1.028 1.855.3.348.64.657.98.965.282.258.59.485.887.727.594.48 1.184.965 1.781 1.437.403.317.809.621 1.149 1.008.273.309.5.637.636 1.031.149.434.301.868.43 1.313.262.906.57 1.797 1.086 2.605.316.493.563 1.032.887 1.52.66 1 1.355 1.976 2.035 2.965.074.101.148.199.258.351-.34-.008-.57-.086-.739-.332-.558-.824-1.144-1.633-1.683-2.468a40.002 40.002 0 0 1-1.41-2.36 5.992 5.992 0 0 1-.528-1.351c-.172-.641-.398-1.27-.593-1.903-.196-.637-.586-1.129-1.09-1.539-.453-.37-.914-.73-1.375-1.098-.516-.41-1.043-.812-1.551-1.234-.707-.586-1.39-1.2-1.902-1.976-.211-.313-.582-.391-.832-.641-.02-.023-.102-.012-.13.012a.141.141 0 0 0-.038.129c.05.09.105.175.164.257.043.067.086.13.023.211-.156.07-.187-.207-.351-.144-.059.039-.063.086-.008.133.215.253.437.496.64.757.102.133.25.262.196.504-.203-.023-.239-.222-.352-.332a4.253 4.253 0 0 0-.387-.363c-.14-.105-.3-.184-.46-.281.007.3.007.3.421.89-.035.114-.097.059-.156.024-.184-.11-.27-.352-.496-.422-.086.176.059.25.098.363.027.086.136.153.086.274-.278-.063-.375-.38-.664-.465-.165.41.457.531.335.914-.3-.059-.378-.465-.757-.48.191.351.515.562.683.859-.047.097-.082.113-.125.074-.258-.234-.61-.32-.91-.742.082.558.469.73.555 1.078-.164.14-.434.105-.567.344.332.46.672.933 1.008 1.41.008.008-.015.043-.035.09-.34-.114-.437-.45-.633-.688-.21-.254-.426-.5-.672-.789-.027.442.07.785.297 1.09-.16.062-.308.07-.355.266l-.442-.391c-.09.055-.093.125-.054.195.086.14.254.25.136.469-.027.05.07.172.114.262.086.172.27.293.293.508-.192.058-.223-.176-.368-.168-.09.062-.027.136-.02.207.005.039.013.105-.01.129-.063.066-.134.043-.192-.02-.11-.125-.14-.332-.352-.352-.023.024-.062.047-.058.055.058.14.117.281.187.434-.066.047-.152.09-.21.156-.056.066-.04.184-.15.242-.16.082-.073.387-.335.395-.113.168-.238.328-.34.504-.117.195-.32.214-.512.265-.105-.117-.062-.242.004-.347.344-.547.5-1.168.703-1.77.168-.508.36-1.012.543-1.516.04-.12.114-.234.137-.359.117-.707.555-1.254.902-1.844.125-.215.336-.383.52-.554.148-.145.308-.27.465-.403.925-.765 1.297-1.8 1.406-2.96.004-.075.004-.153.02-.227.206-1.086-.028-2.13-.266-3.18-.238-1.05-.653-2.039-1.086-3.023-.371-.84-.684-1.707-1.106-2.528-.14-.27-.27-.547-.406-.82-.387-.777-.781-1.55-1.16-2.332a1.602 1.602 0 0 0-.52-.64c-.152.074-.074.214-.105.327-.031.11-.11.043-.184.02-.105.215.118.305.176.457.067.164.153.324.23.484.067.137.137.274.208.41.078.16.164.32.238.481.07.156.215.297.082.531-.176-.152-.277-.347-.39-.523-.13-.192-.22-.406-.32-.613-.095-.18-.184-.364-.278-.543-.11-.204-.207-.415-.336-.606-.121-.172-.149-.43-.387-.516-.094.11-.066.207-.023.305.078.16.16.32.23.485.055.113 0 .195-.098.246-.113.058-.199-.012-.253-.098-.051-.086-.07-.195-.125-.277a.335.335 0 0 0-.184-.114c-.05-.015-.09.16-.074.266.02.14.195.246.101.426-.238.008-.222-.324-.453-.336-.023.02-.07.039-.086.074-.027.078-.031.07-.261.293-.09.082-.145.2-.286.25.164.316.387.59.485.934-.168.132-.254-.102-.399-.09-.187.02-.25-.145-.343-.262-.094-.113-.188-.23-.29-.352-.105.165-.109.22-.035.497-.168.058-.218-.16-.39-.153-.016.364.289.621.37 1.07-.37-.312-.44-.734-.784-.906-.164.172.172.309.015.508-.175-.062-.246-.312-.457-.324-.062.144-.183.23-.328.328l.809 1.21c-.215.032-.215.032-.442-.276-.101-.141-.222-.27-.343-.414l-.207.257c-.227.004-.23-.254-.387-.332-.211.102-.16.387-.348.504a1.426 1.426 0 0 0-.207-.097c-.07-.024-.168.054-.14.113.058.137.128.27.195.402-.2.188-.2.188-.29.488-.14-.117-.269-.238-.41-.347-.042-.028-.09-.028-.14-.008-.086.047-.102.11-.05.195.07.133.144.266.222.407-.117.007.023.074-.063.07-.191-.008-.203-.305-.418-.238-.015.02-.05.046-.047.058.075.242.106.492.102.742 0 .094.078.188.133.274.183.273.379.543.558.82.043.063.06.145-.039.203-.207-.062-.254-.281-.37-.437-.122-.16-.247-.32-.376-.477-.12-.148-.199-.347-.453-.426-.02.29.145.461.25.645.102.176.227.332.356.516l-.344.203c-.274-.094-.336-.446-.621-.528-.031.29-.031.29.836 1.657-.055.144-.133.101-.211.02-.094-.11-.121-.278-.29-.321l-.124.207c-.203-.035-.219-.25-.328-.367-.118-.13-.207-.282-.309-.426-.094.05-.191.11-.133.23.11.227.235.442.344.653a1.914 1.914 0 0 1-.063.082l-.44-.403c-.075.059-.118.133-.08.2.08.132.216.238.255.379.047.183-.094.101-.18.082-.012-.004-.031.035-.07.082.512.761 1.176 1.441 1.52 2.39-.266-.039-.301-.226-.391-.351-.106-.145-.2-.293-.301-.442a12.99 12.99 0 0 0-.254-.383c-.105-.144-.219-.285-.324-.418-.246.082.058.274-.121.383-.274-.144-.356-.504-.645-.734-.02.375.25.547.328.805-.234-.082-.234-.082-.53-.399-.106.082-.083.18-.02.266.28.386.57.773.843 1.14-.043.141-.125.13-.172.075a7.523 7.523 0 0 1-.39-.47c-.121-.163-.219-.335-.414-.417-.117.113-.024.25-.047.367-.031.156.031.285.11.41v.309c-.262.012-.321-.246-.516-.344-.063.242.175.36.207.555.02.156-.207.125-.215.27.328.507.328.507.332.816-.363-.305-.496-.793-.91-1.04-.043.247-.043.247.203.774-.043.168-.145.035-.23.055-.13.148.23.3.027.46-.23-.062-.203-.406-.465-.437-.016.028-.04.055-.035.067.242.617.73 1.09 1.011 1.668-.035.046-.066.082-.066.082-.496-.364-.676-.993-1.129-1.407-.133.196-.133.196.094.801-.215.09-.23-.242-.426-.203-.125.098.02.16.04.238.026.106.343.32-.095.254-.011 0-.062.09-.047.117.07.133.165.254.235.387.015.027-.024.086-.04.133-.237-.04-.284-.41-.616-.36.039.278.332.391.375.641-.196-.008-.196-.008-.582-.316-.024.011-.063.023-.063.031.043.281.317.45.336.77-.281.074-.309-.274-.523-.305-.012.012-.063.043-.059.07.016.168.191.309.043.504-.031.04.043.184.098.262.148.203.312.394.484.61a5.625 5.625 0 0 0 1.047-.47c.46-.25.933-.32 1.46-.23.872.148 1.75.305 2.641.242.555-.039.922.2 1.196.656.687 1.141 1.277 2.325 1.578 3.637.023.098.078.192.098.29.167.847.68 1.476 1.296 2.03.856.762 1.72 1.516 2.5 2.36.746.8 1.457 1.637 2.176 2.465.117.136.215.285.297.445.352.652.844 1.21 1.14 1.879.196-.004.31-.11.438-.188.235-.152.469-.308.711-.445 1.094-.61.703-.469 1.942-.531.585-.04 1.167 0 1.742.117.199.043.406.039.61.055l2.124.172c.098.007.203.011.3.027.68.098 1.259.379 1.696.933.395.5.82.977 1.196 1.493.332.457.765.668 1.308.625.606-.051 1.219-.098 1.809-.23.793-.18 1.601-.263 2.414-.247.836.024 1.68-.05 2.508.121.152.031.308.04.449.094.66.262 1.328.512 1.969.812.71.34 1.398.73 2.093 1.098.813.422 1.617.856 2.461 1.215a5.554 5.554 0 0 1 1.883 1.285c.406.426.875.77 1.371 1.09.406.262.797.547 1.2.816.156.102.273.227.324.407-.07.117-.165.07-.258.043-.395-.118-.727-.36-1.055-.598-.695-.512-1.426-.98-2.035-1.61a4.242 4.242 0 0 0-1.254-.859 45.118 45.118 0 0 1-3.324-1.703c-.09-.05-.184-.094-.285-.02-.055.184.246.243.14.477l-.472-.355-.157.238c-.46-.309-.742-.82-1.218-1.117l-.16.172c-.149-.059-.25-.282-.465-.125-.09.066-.188 0-.278-.059-.101-.066-.207-.129-.3-.191-.13.086-.055.203-.09.289l-.004.004c-.309-.047-.407-.356-.621-.52-.114-.082-.192-.242-.371-.191-.02.02-.055.046-.051.05.117.203.238.403.39.653-.312-.024-.441-.348-.718-.293-.137-.16-.266-.336-.532-.477.258.367.258.367.551.453l-.055.274c-.136.05-.21-.028-.28-.09-.208-.191-.407-.387-.614-.574-.063-.059-.156-.067-.2 0-.027.043.009.133.016.203-.015.008-.047.039-.058.031-.153-.082-.301-.18-.457-.254a.38.38 0 0 0-.219-.02c-.105.016-.07.106-.074.18-.016.207-.227.239-.364.364l.47.507c-.04.051-.075.086-.075.086a68.024 68.024 0 0 1-.996-.789c-.395.051-.781.239-1.176-.043.074.227.227.352.344.5.105.14.297.2.332.399-.266-.047-.27-.047-.524-.282a27.603 27.603 0 0 1-.503-.468c-.176.144.097.32-.079.453-.148.113.168.266-.027.406-.273-.137-.441-.406-.676-.594-.148-.117-.28-.074-.39.063-.032.09.027.148.078.195.347.336.59.774.972 1.074.723.57 1.461 1.11 2.22 1.63.757.511 1.507 1.038 2.245 1.585a7.45 7.45 0 0 1 1.403 1.403c.476.605 1.011 1.148 1.535 1.707.191.203.383.398.488.629-.066.128-.133.109-.207.093-.273-.054-.43-.27-.598-.457-.632-.699-1.277-1.39-1.882-2.113-.536-.633-1.18-1.129-1.856-1.578-1.058-.703-2.09-1.45-3.121-2.192a3.74 3.74 0 0 1-.578-.503c-.867-.934-1.793-1.813-2.543-2.856-.285-.39-.594-.766-.922-1.125-.152-.168-.254-.484-.594-.324a37.016 37.016 0 0 0-.402-.352c-.059-.05-.137-.086-.2-.02-.062.071.024.13.048.192a.72.72 0 0 1 .015.09c-.164.086-.18-.102-.265-.148a2.763 2.763 0 0 1-.246-.172c-.079.133-.141.238-.215.367.187.258.386.52.574.789.02.027-.008.102-.035.133a.114.114 0 0 1-.121-.012c-.301-.344-.59-.7-.895-1.039a6.288 6.288 0 0 0-.492-.477c-.031-.027-.09-.023-.176-.039.028.196.188.293.262.434.078.156.234.27.242.465-.082.12-.125.011-.164-.031-.23-.27-.457-.547-.691-.817-.067-.078-.157-.14-.262-.058-.082.062-.02.132.008.199.035.07.047.14-.024.203l-.304-.219c-.168.25-.297.293-.461.14-.18-.171-.313-.41-.61-.448l-.21.375c.113.289.374.433.542.656.047.062.07.133.012.199-.066.082-.148.043-.191-.016-.297-.418-.684-.75-1.047-1.105a1.64 1.64 0 0 0-.192-.145c-.011.368.38.489.414.79-.05.081-.125.085-.183.03-.125-.128-.235-.269-.36-.394-.129-.125-.257-.097-.367.086-.035.055-.02.14-.105.172l-.293-.188-.16.2-.715-.676c-.125.101-.043.18.011.254.165.219.368.402.536.762-.485-.235-.66-.668-1.04-.856-.101.055-.242.078-.117.258.176.246.34.504.52.77-.023.195-.043.39-.07.617-.496-.192-.73-.711-1.227-.899.293.492.293.492.309.8-.145.067-.211-.07-.344-.128-.098.203.148.293.144.45-.043.003-.105.034-.128.015-.204-.18-.375-.402-.637-.55.066.347.074.339.39.71.157.18.403.3.461.645-.367-.157-.547-.442-.793-.633-.02.004-.054.008-.054.015-.004.09-.004.18-.004.274-.23.066-.203-.172-.301-.258-.117-.098-.215-.219-.371-.254-.098.04-.078.102-.047.172.031.066.09.133 0 .215l-.324-.188c-.067.11-.04.172.008.239.254.32.504.64.754.964.086.11.125.22-.004.348-.356-.172-.418-.633-.77-.809-.105.09.004.262-.156.356-.262-.145-.39-.438-.61-.645-.062-.058-.136-.027-.19.04.003.257.343.386.265.68-.504-.024-.5-.04-.907-.38-.085-.066-.175-.09-.27.07.263.462.755.778.974 1.29-.075.07-.149.09-.211.02-.184-.212-.364-.427-.543-.641-.098-.11-.168-.247-.32-.297-.055.308.242.48.28.75-.054.07-.12.097-.187.02-.16-.192-.316-.391-.543-.509-.168.172.192.329-.008.493-.27-.172-.398-.508-.726-.63-.133.231.152.31.136.5-.242.106-.335-.308-.613-.171.067.191.196.336.34.46.606.516 1.078 1.157 1.582 1.766.098.118.191.246.04.422-.622-.531-.977-1.316-1.665-1.777-.223.164.195.297-.043.488-.215-.023-.246-.316-.414-.433-.18-.13-.363-.254-.61-.422.044.32.282.43.348.648-.043.188-.34.168-.351.45l-.746-.669c-.117.118.008.176.062.243.301.336.645.64.899 1.007a.763.763 0 0 1-.067.09c-.523-.265-.797-.843-1.324-1.09-.133.075-.11.168-.043.25.16.2.328.391.492.586.063.075.153.137.117.262-.144.074-.207-.086-.312-.117l-.18.16-.73-.625c-.086.078-.086.148-.028.215l.356.402c-.09.215-.016.52-.356.582.008.301.313.45.364.727-.106.137-.16-.012-.215-.051-.203-.148-.258-.45-.524-.543-.148.094-.02.168.028.227.078.097.156.183.093.363-.347-.246-.57-.559-.847-.813-.106-.097-.176-.035-.242.07.007.196.187.274.293.403.109.133.222.262.359.418-.293-.031-.293-.031-.926-.516-.015.192.14.25.215.356.07.094.172.176.164.324-.32.04-.418-.355-.734-.371-.121.238.156.332.203.508-.203.133-.309-.082-.461-.133-.176.098.055.2-.031.32-.121.086-.246-.125-.399-.058-.379.41-.761.82-1.144 1.222-.032.032-.094.04-.137.055-.078-.031-.125-.098-.11-.172a.749.749 0 0 1 .126-.285c.422-.543.84-1.09 1.347-1.559.469-.433.918-.882 1.352-1.355a9.102 9.102 0 0 1 2.265-1.8c.887-.497 1.77-.997 2.7-1.419a28.737 28.737 0 0 0 2.836-1.48c.308-.188.566-.422.828-.7-.32-.335-.543-.706-.766-1.078-.691-1.14-1.574-2.132-2.465-3.113-.965-1.058-2.004-2.031-3.07-2.984-.309-.278-.559-.594-.8-.922a2.039 2.039 0 0 1-.345-.762c-.183-.8-.457-1.57-.753-2.332a8.698 8.698 0 0 0-1.008-1.902c-.176-.11-.266.11-.395.004-.097-.078-.199-.149-.308-.23-.153.284.191.413.129.644-.032.054-.063.047-.122.011-.254-.14-.418-.367-.601-.578-.059-.082-.13-.09-.203-.027-.016.254.285.383.27.66-.231-.008-.262-.223-.38-.332-.113-.098-.195-.23-.379-.215-.203.02-.273-.21-.445-.265-.125.074-.305.039-.39.23.19.309.39.625.59.95.007.011-.02.042-.051.1-.211-.105-.293-.323-.422-.487-.16-.203-.297-.422-.57-.477-.301-.062-.426-.348-.602-.508-.192.04-.215.309-.426.203-.059.121-.082.301-.289.16-.05.278.297.376.21.637-.19.051-.21-.18-.35-.203-.102.047-.028.305-.22.215-.163-.078-.144.11-.242.113-.246-.09-.34-.394-.601-.523-.113.258.082.367.156.508.078.16.192.3.281.457.086.148.25.261.211.5-.343-.078-.324-.477-.562-.63-.23-.148-.293-.464-.582-.624-.102.43.328.582.386.91-.414.074-.535-.352-.8-.524-.137.223.015.32.097.434.078.106.149.207.098.352-.16.105-.227-.16-.375-.102-.07.031-.078.074-.027.133.297.45.593.894.886 1.34.13.191.282.367.305.61 0 .05-.02.093-.062.124-.043.02-.086.012-.125-.02-.239-.355-.465-.722-.704-1.078-.109-.168-.238-.328-.359-.488-.52.078-.562-.504-.91-.66-.082.04-.098.094-.05.168.12.195.237.39.347.574-.047.195-.153.055-.227.07-.07.02-.137.043-.195.063-.535-.55-.535-.55-.75-.496.027.277.324.39.379.652-.012.164-.16.02-.207.086a1.298 1.298 0 0 0-.09.2c-.148.03-.2-.122-.313-.169-.02.032-.062.07-.054.098.035.133.195.246.027.426-.25-.29-.398-.649-.672-.895-.262.141.153.453-.219.54-.261.081-.46-.192-.77-.255.153.528.54.844.75 1.258-.077.137-.167.094-.23.012-.242-.328-.476-.664-.718-.988-.059-.082-.137-.16-.254-.07-.043.18.219.261.152.456-.055.04-.055.04-.508-.351-.195.082-.379.262-.582 0-.074.277.172.351.172.531-.043.016-.105.059-.129.043-.11-.066-.195-.176-.308-.219-.075-.027-.184.051-.274.04-.176-.028-.195-.286-.394-.301-.149.09.113.222-.032.316-.168-.004-.187-.246-.363-.23-.133.12.149.27-.027.39-.281-.07-.34-.426-.63-.508.024.41.024.41.962 1.668-.07.11-.176.114-.246.024-.16-.195-.297-.41-.453-.63l-.371.095-.325-.457c-.129.207.032.273.082.379.043.085.125.16.07.277-.144.039-.171-.145-.312-.168-.137.082-.16.258-.242.39.07.344.379.536.527.829.012.027-.023.086-.05.117a.066.066 0 0 1-.07.004c-.09-.086-.173-.18-.255-.274-.168-.187-.265-.441-.5-.578-.23.254.13.5.008.746-.101.075-.183-.035-.281-.023.023-.23-.125-.375-.262-.52-.05-.054-.11-.09-.156.024.113.183.23.375.445.472Zm9.304-5.437c-.336-.332-.48-.738-.851-.945-.141.168-.043.289.047.421.078.114.246.196.132.403-.238-.016-.257-.352-.492-.36-.09.11.027.184.043.274.016.094-.047.129-.137.101-.066-.02-.132-.035-.195-.05-.043.082-.066.164-.117.215a.486.486 0 0 0-.149.335.093.093 0 0 1-.035.059c-.058.031-.168-.055-.191.05-.043.196-.23.173-.344.259a.123.123 0 0 0-.055.054c-.011.043-.03.102-.011.125.027.035.097.067.133.055a64.73 64.73 0 0 0 1.546-.64c.204-.087.399-.212.676-.356ZM7.543 33.78c.047.278.043.278.254.469.043.035.078.02.121-.082-.145-.098-.156-.328-.375-.387Zm0 0"/></g><path d="M23.34 35.258c-.27-.016-.297-.34-.54-.399l-.136.22c-.219-.036-.289-.267-.469-.364-.105.246.239.363.18.62-.184.02-.23-.253-.414-.214-.129.074-.05.168-.023.25.027.086.003.188-.06.195-.304.036-.081.207-.089.317 0 .023-.008.047-.012.07-.086.117-.257-.016-.343.125-.012.274.32.363.351.61-.02.019-.047.039-.07.058-.14-.11-.277-.223-.414-.34-.145.059-.09.149-.028.223.168.191.352.367.512.562.05.059.016.137-.055.184-.246-.117-.332-.438-.625-.5-.148.156.145.262.036.422-.207-.016-.266-.277-.47-.305 0 .246 0 .246.317.633-.23.14-.312-.203-.515-.156-.106.222.175.316.203.472-.137.157-.242-.09-.356.028.02.308.422.422.399.758-.192.062-.23-.16-.371-.172l-.114.312c-.363-.176-.418-.656-.808-.777-.211.336.219.469.23.73-.238-.054-.238-.054-.644-.394-.203.164.12.297.027.453-.027.059-.066.062-.121.016-.113-.098-.23-.196-.348-.293-.195.023-.074.203-.18.316-.128.082-.257-.23-.43-.07-.05.14.114.199.126.336-.293-.043-.492.101-.656.336l.414.527c-.047.11-.102.11-.168.05-.2-.179-.383-.386-.656-.538-.028.293.27.332.273.566-.027.047-.102.055-.16.004-.156-.129-.301-.274-.434-.399-.148-.003-.187.067-.219.18-.035.137-.144.07-.234.055-.133.25.23.312.2.515-.063.07-.063.07-.66-.378-.09.066-.138.156-.063.253.207.258.422.508.636.762.047.059.086.121.012.235-.36-.18-.562-.547-.875-.782-.117.063-.078.153-.039.242.125.286.328.508.531.7-.031.125-.066.172-.16.12-.09-.05-.18-.089-.285-.054.016-.289-.211-.406-.434-.668.133.395.133.395.454.653-.04.109-.122.19-.223.124-.168-.113-.313-.253-.465-.386-.09.066-.059.14-.012.199.258.316.52.629.778.945.062.075.113.157.164.23-.125.126-.22.055-.285-.01-.184-.18-.348-.372-.52-.563-.129-.145-.246-.313-.46-.364 0 .262 0 .262.46.809-.055.133-.14.105-.219.031-.133-.121-.25-.254-.379-.375a.74.74 0 0 0-.129-.086c-.117.078-.074.176-.003.246.113.094.23.184.351.27-.2.293-.355-.051-.539.105.215.242.43.48.64.727.083.101.126.219-.007.328-.328-.172-.434-.563-.738-.762-.02.192-.02.192.12.418.024.149-.144.102-.183.184-.031.066-.07.129-.117.215l-.563-.43c.063.258.063.258.27.527-.27.067-.379-.254-.61-.21-.082.136-.09.14.016.363-.043.023-.086.062-.12.054a2.182 2.182 0 0 1-.282-.101c-.164.176-.309.351-.477.504-.125.113-.273.133-.394-.032.004-.046-.012-.113.011-.144 1.133-1.41 2.27-2.824 3.407-4.23.648-.813 1.437-1.434 2.425-1.782.407-.144.79-.347 1.188-.512.684-.277 1.203-.773 1.648-1.332.739-.921 1.301-1.953 1.743-3.05.316-.782.593-1.575.882-2.368.047-.117.07-.246.106-.367.226-.785.7-1.414 1.265-1.976.133-.121.29-.203.461-.254.668-.2 1.243-.57 1.809-.961.063-.047.129-.082.2-.113.038-.012.097.011.136.035.074.043.082.12.059.199a.527.527 0 0 1-.075.129c-.117.18-.386.258-.324.562.035.176-.203.325-.11.54l-.308-.192c-.101.266.238.414.219.684-.34-.078-.363-.442-.621-.547-.203.11.14.27-.063.394l-.402-.25c-.059.235.277.325.125.551-.223-.027-.266-.293-.465-.348-.086.032-.117.09-.082.18.078.184.176.363.266.54-.028.07-.059.081-.11.05-.172-.106-.27-.309-.52-.375-.003.285.368.363.31.66-.255.047-.27-.328-.505-.308-.093.12.016.19.07.257.255.29.516.567.766.856.051.062.012.137-.085.191l-.997-1.02c-.101.083-.086.157-.035.22.14.175.293.347.442.527.043.054.09.12.047.207-.012.012-.036.047-.043.043-.32-.125-.43-.504-.778-.645-.125.38.254.512.348.785l-.168.137c-.012.266.344.348.332.645-.332.043-.402-.356-.668-.387-.172.312.32.394.187.695l-.34-.234c-.105.238.122.332.169.5l-.223.203c.203.34.41.68.617 1.016-.238.187-.258-.055-.355-.133-.133-.012-.094.152-.211.191l-.57-.574c-.208.207.038.336.042.516l-.222.183c.203.29.406.582.613.871.063.086.11.168.086.282ZM45.457 41.379c-.238.004-.293-.262-.5-.215-.008.223.29.266.277.484-.047.012-.105.051-.132.032-.204-.133-.364-.336-.645-.45.008.333.363.395.363.665-.133.105-.226-.028-.324-.075-.113-.054-.21-.136-.328-.215-.031.079-.047.157-.09.211-.086.106-.305.059-.316.266-.274.125-.543.254-.82.375-.028.012-.098-.023-.126-.055-.023-.035-.039-.113-.023-.132.27-.31.539-.61.816-.907.66-.71 1.305-1.437 1.84-2.25a2.56 2.56 0 0 1 1.281-1.031c.262-.094.512-.227.774-.316.238-.09.484-.153.734-.192.528-.074 1.055-.152 1.563-.316.097-.04.172-.012.222.082.036.215-.21.297-.285.469.02.21.309.379.102.625-.242-.086-.266-.38-.477-.485-.043-.02-.101-.035-.136-.015a.145.145 0 0 0-.051.12c.015.118.156.216.054.352-.253-.011-.285-.426-.632-.328.28.543.937.758 1.109 1.36.004.015-.031.039-.05.062-.317-.29-.598-.625-.97-.84-.238.106.083.281-.078.383-.097.02.028.074-.054.012-.301-.235-.477-.602-.82-.79-.141.07-.06.153-.012.231.093.149.277.23.316.418.004.035-.043.082-.062.125-.247-.117-.336-.437-.641-.492-.04.219.156.3.25.433.082.122.18.23.336.43-.516-.156-.684-.633-1.11-.777-.117.281.235.363.208.578-.18.055-.239-.164-.43-.172l-.07.633c-.235.05-.282-.219-.461-.23-.063.027-.075.066-.036.113.098.12.188.242.278.355.008.16-.23.11-.207.266.015.097.086.21.058.285-.062.148.016.418-.293.352.082.308.403.406.457.703-.226.02-.32-.157-.449-.258a4.952 4.952 0 0 1-.394-.36c-.121-.125-.211-.28-.391-.328-.016.024-.047.043-.043.063.012.3.383.387.414.746ZM53.621 13.914c.188.063.258.238.348.39 1.043 1.813 2.27 3.512 3.351 5.301.657 1.086 1.594 1.832 2.676 2.434.352.195.691.422 1.031.645.434.285.778.652 1.032 1.109.324.559.535 1.16.636 1.797.157 1.012.387 2.004.688 2.98.293.957.773 1.836 1.328 2.664.352.528.773 1.012 1.168 1.512.414.52.754 1.09 1.07 1.668.375.695.692 1.422 1.035 2.133-.16.113-.21.11-.277-.012-.3-.558-.613-1.117-.898-1.687a10.588 10.588 0 0 0-1.157-1.797c-.675-.86-1.328-1.739-1.859-2.703-.527-.953-.828-1.977-1.063-3.024-.167-.746-.3-1.5-.453-2.25-.164-.84-.601-1.504-1.277-2.02-.445-.343-.945-.593-1.422-.886-.41-.25-.812-.508-1.187-.816a5.112 5.112 0 0 1-1.008-1.145 123.971 123.971 0 0 1-1.965-3.008c-.613-.972-1.191-1.965-1.781-2.949-.063-.11-.133-.219-.012-.336ZM33.516 19.203c-.13-.062-.141-.16-.098-.254.105-.23.227-.453.355-.672.164-.265.262-.55.36-.843.379-1.133.762-2.27 1.246-3.364.14-.324.23-.675.457-.957.129-.16.25-.32.418-.441.742-.531 1.476-1.07 2.219-1.606a.52.52 0 0 1 .136-.05c.102.054.04.125.012.183a1.974 1.974 0 0 1-.535.64c-.352.29-.703.59-1.094.813-.707.403-1.156 1.004-1.387 1.75-.183.586-.44 1.141-.66 1.707-.347.903-.675 1.813-1.14 2.664-.082.153-.137.332-.29.43Zm0 0"/><path d="M67.793 35.031c-.05-.054-.121-.101-.152-.168-.532-1.11-1.246-2.105-1.86-3.168-.547-.949-1.105-1.894-1.648-2.847-.106-.188-.258-.371-.258-.61.063-.015.121-.05.145-.031a.448.448 0 0 1 .152.168c.512.941 1.164 1.793 1.633 2.766.304.64.75 1.214 1.132 1.816.395.629.68 1.305.91 2.008 0 .015-.034.039-.054.066ZM38.3 30.488c.071-.101.138-.144.212-.11a.845.845 0 0 1 .246.173c.59.664 1.191 1.32 1.683 2.066.375.57.82 1.102 1.23 1.653.095.12.208.234.267.37.078.188.37.31.195.583-.262-.008-.278-.258-.39-.41-.325-.426-.657-.844-.977-1.274a45.669 45.669 0 0 1-.934-1.297c-.293-.422-.66-.77-1-1.144-.187-.203-.395-.387-.531-.61ZM55.781 11.504c-.23-.274-.46-.527-.625-.836-.21-.379-.418-.762-.656-1.121-.531-.809-1.086-1.602-1.629-2.402a3.068 3.068 0 0 1-.238-.391c-.031-.063.004-.14.078-.184.55.407 2.227 3.04 2.969 4.41.082.149.203.301.101.524ZM50.95 29.25c.09-.148.183-.152.26-.059.18.215.356.43.517.66.683.985 1.351 1.981 1.902 3.051.094.184.172.371.238.567.016.05-.043.125-.09.254-.87-1.59-1.851-3.043-2.828-4.473ZM56.203 20.02c-.289-.43-.594-.836-.848-1.274-.39-.66-.777-1.316-1.23-1.933a.287.287 0 0 1-.059-.137.14.14 0 0 1 .055-.125.118.118 0 0 1 .133.012c.394.464.781.937 1.074 1.476.293.543.68 1.016.902 1.594.043.117.118.234-.023.387ZM23.332 35.266c.117-.016.191.058.25.14.164.223.316.453.477.684-.051.031-.11.086-.125.078-.215-.148-.5-.594-.594-.91ZM30.781 16.57c-.078-.125-.136-.25-.11-.406.466.441.466.441.552.715-.032.043-.075.047-.121 0a11.94 11.94 0 0 1-.32-.309ZM50.035 2.207c.047.012.11.008.137.04.164.187.32.382.543.655-.469-.273-.477-.28-.668-.707ZM63.016 38.64c.226.005.343.157.433.34.004.012-.02.04-.035.055-.012.016-.039.035-.05.031-.176-.093-.356-.175-.352-.418Zm0 0"/></svg>