<svg width="658" height="738" viewBox="0 0 658 738" fill="none" xmlns="http://www.w3.org/2000/svg">
<path d="M-216.95 429.289C-217.434 431.166 -218.705 431.983 -220.369 431.014C-222.336 429.834 -224.061 428.17 -225.997 426.898C-226.27 426.717 -227.238 427.564 -228.055 428.048L-223.335 434.888L-225.392 437.612C-222.306 444.392 -215.951 449.144 -213.318 456.256C-213.228 456.468 -213.591 456.861 -213.712 457.164C-214.045 457.346 -214.529 457.739 -214.65 457.648C-220.883 452.715 -223.97 445.058 -229.629 439.671C-231.807 440.821 -230.748 442.273 -230.506 443.635C-229.962 446.632 -226.149 448.357 -227.208 452.17C-230.506 452.806 -230.658 449.628 -232.14 448.266C-233.865 446.692 -234.833 444.331 -237.315 443.454C-239.433 444.029 -241.188 445.27 -239.705 447.57C-237.557 450.839 -234.954 453.774 -232.564 456.801C-233.351 458.163 -236.135 457.709 -235.681 459.767C-234.803 463.641 -236.679 462.43 -238.495 461.462C-239.373 460.978 -240.129 460.887 -240.462 461.643C-240.704 462.309 -240.886 463.308 -240.553 463.762C-237.285 468.151 -233.684 472.418 -231.414 477.2C-232.867 479.863 -234.047 478.592 -235.136 477.563C-236.225 476.534 -236.891 474.87 -238.828 475.021C-240.674 469.391 -240.674 469.391 -247.301 464.216C-245.334 470.39 -245.334 470.39 -238.586 474.809L-242.187 480.65C-244.214 481.71 -245.455 480.65 -246.635 479.621C-249.268 477.261 -251.81 474.779 -254.503 472.479C-254.745 472.267 -255.804 473.054 -256.591 473.417C-250.236 483.828 -241.884 492.908 -236.377 503.834C-236.982 505.135 -237.859 505.438 -238.949 504.53C-243.034 501.14 -245.122 496.267 -248.148 492.091C-251.386 487.581 -254.563 483.132 -259.284 479.682C-260.192 485.584 -260.192 485.584 -249.328 497.569C-250.539 499.415 -251.87 498.749 -253.081 497.66C-255.895 495.148 -258.618 492.575 -261.523 489.881C-262.976 493.362 -260.222 494.663 -259.193 496.57C-257.438 499.869 -258.527 500.565 -261.705 499.839C-262.068 502.835 -264.458 502.654 -266.91 502.986C-263.914 509.524 -258.073 514.124 -255.108 520.056C-256.288 522.114 -257.499 521.812 -258.255 520.904C-262.855 515.426 -267.394 509.887 -271.902 504.288C-272.629 503.38 -273.022 502.23 -273.809 500.686C-275.836 504.621 -275.836 504.621 -267.515 516.364C-268.15 517.605 -269.209 517.938 -270.208 517.03C-273.113 514.397 -275.897 511.582 -278.983 508.616C-278.832 512.641 -278.832 512.641 -270.692 521.388C-271.6 522.599 -272.659 522.387 -273.658 521.63C-276.048 519.844 -277.591 516.878 -280.739 516.243C-282.463 518.392 -280.92 519.512 -280.043 520.662C-278.53 522.508 -276.835 524.172 -275.201 525.898C-276.895 528.894 -274.838 530.982 -273.415 533.222C-273.294 533.343 -273.567 533.857 -273.809 534.039C-274.021 534.221 -274.565 534.584 -274.777 534.493C-275.867 534.069 -276.865 533.525 -277.803 532.859C-281.737 529.56 -285.671 526.17 -289.272 523.053C-292.782 523.749 -289.907 529.923 -296.595 526.896L-292.237 533.373C-292.812 533.736 -293.569 534.523 -293.872 534.372C-295.96 533.282 -297.926 532.011 -300.014 530.74C-305.219 534.554 -310.817 537.217 -317.323 538.216C-320.773 538.73 -323.981 540.758 -327.34 541.908C-329.034 542.483 -330.366 541.606 -331.243 540.122C-331.667 538.639 -330.729 537.671 -329.7 537.217C-326.069 535.613 -322.437 533.827 -318.625 532.828C-312.996 531.345 -308.457 528.228 -304.372 524.415C-299.439 519.784 -294.537 515.153 -290.422 509.675C-282.796 499.476 -275.11 489.337 -268.695 478.229C-262.128 466.879 -254.957 455.863 -249.268 444.12C-249.903 441.244 -251.991 440.609 -254.351 440.336C-256.016 442.243 -252.475 443.787 -254.079 445.663C-254.745 445.966 -255.683 446.722 -256.107 446.511C-259.859 444.543 -263.732 445.209 -267.515 446.117C-270.541 446.904 -273.415 448.145 -275.503 448.871C-280.012 448.871 -281.435 444.937 -284.43 444.331C-285.913 445.209 -286.155 446.208 -285.247 447.267C-282.917 449.961 -279.407 451.504 -277.743 454.955C-278.227 457.346 -279.74 458.587 -281.798 456.922C-284.582 454.713 -286.942 451.989 -289.272 449.688C-292.994 449.84 -296.474 450.748 -299.772 452.443C-302.465 451.868 -304.009 448.841 -306.762 448.932C-307.398 449.507 -307.973 449.779 -307.943 450.021C-307.67 453.078 -304.614 454.349 -303.494 456.861C-303.252 457.376 -303.706 458.284 -303.979 458.98C-304.1 459.283 -304.644 459.737 -304.826 459.676C-305.976 459.373 -307.065 458.768 -308.215 458.526C-310.515 458.102 -312.905 457.618 -314.842 459.676C-314.751 463.52 -311.544 464.731 -309.032 466.577C-308.064 467.333 -307.731 468.453 -308.941 469.573C-309.365 469.997 -309.879 470.239 -310.485 470.239C-311.12 470.269 -311.634 470.057 -312.088 469.634C-312.996 468.907 -313.874 468.09 -314.721 467.212C-317.565 464.488 -320.38 461.643 -323.345 459.01C-323.799 458.496 -324.344 458.284 -325.04 458.314C-325.705 458.375 -326.22 458.677 -326.613 459.222C-326.371 462.642 -322.195 463.429 -321.439 466.637C-321.59 469.513 -324.767 469.694 -326.099 471.571C-327.521 474.173 -322.77 476.504 -325.796 479.137C-328.066 479.349 -329.095 477.351 -330.729 476.413C-331.546 476.928 -331.788 477.715 -331.122 478.441C-328.611 480.983 -325.887 483.344 -323.557 486.007C-322.77 486.885 -323.618 488.156 -325.01 488.943C-328.52 488.55 -330.245 484.948 -333.119 483.253C-335.207 485.311 -331.243 486.794 -333.029 488.701C-335.994 491.213 -337.568 486.007 -340.382 487.279C-341.259 489.518 -340.17 492.333 -342.833 494.24C-344.739 495.602 -343.045 499.052 -345.556 500.474C-347.856 500.444 -348.945 498.658 -350.247 497.175C-351.548 495.723 -352.758 494.421 -355.905 494.028C-353.273 500.595 -349.097 504.651 -345.102 508.495C-345.284 509.554 -345.193 510.432 -345.587 510.946C-345.95 511.491 -346.858 511.824 -347.493 512.217C-357.782 499.93 -357.782 499.93 -361.413 499.748C-362.169 502.654 -356.117 504.167 -359.809 507.617C-362.472 506.982 -363.743 502.26 -367.677 504.53C-367.162 508.737 -363.077 510.371 -362.23 513.943C-367.011 519.3 -367.011 519.3 -375.877 513.701C-376.815 516.273 -374.183 516.697 -373.366 518.059C-372.337 519.723 -372.7 520.934 -374.364 522.357L-380.628 517.211C-382.05 517.877 -381.808 519.058 -381.112 519.875C-378.51 522.871 -375.665 525.655 -373.184 528.743C-372.518 529.529 -373.275 530.891 -375.06 531.557C-376.331 530.468 -377.814 529.197 -379.266 527.925C-380.416 526.896 -381.475 525.655 -383.261 526.049C-383.684 529.318 -383.684 529.318 -380.658 534.16C-380.598 536.642 -383.836 536.37 -384.229 538.095C-382.777 545.782 -374.122 548.506 -372.881 556.042C-372.821 556.345 -373.214 556.708 -373.638 557.435C-379.024 555.951 -380.87 550.867 -383.987 547.144C-387.255 543.21 -389.525 538.367 -394.336 535.098C-397.695 536.097 -399.722 539.275 -402.718 541C-406.501 540.516 -407.923 536.158 -411.252 535.341C-412.734 536.067 -413.521 537.096 -412.886 538.246C-411.1 541.454 -407.802 543.119 -405.169 545.51C-403.293 547.205 -404.413 549.051 -406.471 550.201C-409.557 550.564 -410.404 546.266 -413.612 546.811C-413.642 544.269 -415.276 542.604 -416.971 541.03C-417.879 540.183 -419.21 539.85 -419.785 541.242C-420.179 542.302 -420.088 543.331 -419.513 544.299C-417.97 546.478 -415.942 547.235 -413.37 546.569C-414.036 551.654 -418.484 553.258 -422.145 555.891C-424.052 553.924 -425.928 551.896 -427.834 549.929C-428.651 549.142 -431.133 549.444 -431.012 550.231C-430.921 551.018 -430.921 551.835 -430.497 552.259C-428.319 554.529 -425.989 556.648 -423.87 558.675C-425.535 565.758 -425.535 565.758 -421.54 570.479C-420.965 571.024 -420.451 571.629 -419.967 572.265C-419.634 573.021 -419.392 573.808 -419.24 574.595L-421.873 576.895C-423.749 574.595 -425.444 572.386 -427.29 570.328C-428.046 569.48 -429.317 568.118 -430.043 568.3C-435.278 569.601 -438.577 566.03 -441.724 562.095C-443.933 566.302 -441.331 566.968 -440.332 568.36C-439.636 569.299 -438.698 570.086 -437.941 570.963C-437.185 571.871 -437.487 574.081 -438.305 574.141C-439.001 574.262 -439.696 574.202 -440.362 573.99C-442.813 572.749 -443.933 569.632 -446.989 569.178C-448.109 569.511 -448.29 570.055 -447.504 570.872L-431.012 587.7C-430.891 589.94 -431.889 590.939 -433.614 591.362C-438.698 589.032 -439.424 581.829 -445.567 580.709C-447.383 582.041 -444.175 584.795 -448.411 585.975C-451.256 586.157 -452.255 581.072 -455.886 580.769C-457.187 581.223 -458.216 582.434 -457.671 583.403C-456.945 584.674 -455.311 585.37 -454.161 586.429C-452.497 587.942 -451.528 590.303 -453.495 591.514C-457.036 593.632 -452.315 597.476 -455.19 598.717C-457.822 599.837 -460.062 601.169 -461.605 603.408C-463.542 606.162 -464.994 609.28 -468.293 611.186L-462.634 619.237C-462.906 619.933 -463.269 620.599 -463.723 621.204C-465.327 622.748 -466.689 621.507 -467.657 620.357C-469.866 617.633 -471.137 614.092 -474.314 612.155C-477.25 613.245 -474.224 616.755 -477.34 618.238L-481.758 615.182C-483.453 616.876 -481.819 617.996 -481.093 619.267C-480.427 620.418 -480.276 621.537 -481.395 622.355C-482.061 622.778 -482.727 622.839 -483.423 622.566C-488.355 619.388 -492.38 620.115 -495.739 624.988C-496.344 625.835 -497.464 626.289 -498.432 626.955C-498.674 626.017 -499.279 625.078 -499.037 624.594C-498.069 622.839 -496.979 621.174 -495.678 619.631C-484.542 606.616 -475.737 591.816 -464.238 579.044C-460.697 575.261 -457.611 571.115 -454.917 566.666C-446.263 551.805 -433.584 541.091 -419.936 531.255C-411.796 525.504 -403.384 520.208 -394.669 515.395C-379.509 506.86 -366.769 495.571 -356.45 481.558C-351.245 474.537 -345.919 467.576 -340.473 460.735C-331.273 449.234 -319.805 441.063 -305.613 436.614C-294.174 433.103 -282.494 430.742 -270.601 429.501C-262.28 428.593 -253.988 427.625 -245.667 426.838C-241.793 426.626 -238.858 424.84 -236.891 421.481C-233.532 416.093 -229.719 410.948 -226.482 405.47C-219.734 393.909 -209.112 387.099 -197.462 381.681C-193.8 379.896 -189.927 379.078 -185.842 379.29C-182.271 379.563 -178.67 379.381 -175.099 379.411C-163.812 379.532 -153.04 376.536 -142.146 374.175C-139.241 373.51 -137.274 371.633 -135.186 369.757C-124.262 359.829 -114.306 348.994 -105.349 337.251C-97.784 327.506 -90.0374 317.881 -82.2302 308.317C-76.6623 301.538 -71.7601 294.304 -67.4631 286.647C-61.1992 275.57 -53.9367 265.067 -47.461 254.081C-33.2991 230.08 -19.2582 205.989 -8.09216 180.323C-4.64246 172.303 -0.224457 164.646 4.07254 157.019C8.2182 149.634 14.0887 143.671 20.4737 138.163C26.4652 132.867 32.8804 128.175 39.7798 124.12C50.0684 118.127 60.2964 111.983 70.4639 105.688C73.8228 103.6 76.7581 100.815 79.9052 98.3939C86.5624 93.3396 93.2197 88.3457 99.8467 83.2611C106.595 78.2369 112.586 72.4259 117.791 65.7977C120.938 61.7119 124.509 57.9286 128.049 54.1454C134.374 47.3659 141.606 41.8575 150.351 38.498C153.317 37.2874 156.161 35.8649 158.945 34.2911C167.297 29.6604 176.133 26.2101 185.453 23.9402C198.919 20.732 212.325 16.7975 224.974 10.7141C235.474 5.59915 247.124 4.32799 258.29 1.51327C264.131 0.0302567 270.243 1.39222 275.993 3.05683C280.744 4.41879 284.496 7.74802 287.34 11.5312C297.417 24.8784 308.22 37.6808 316.572 52.2689C324.107 65.4043 330.915 78.9028 339.086 91.6749C343.564 98.6663 346.772 106.445 351.25 113.527C368.892 141.492 384.749 170.457 398.82 200.42C404.72 213.101 412.679 224.542 418.822 237.072C422.302 244.184 426.266 251.085 429.776 258.197C432.651 264.038 437.008 268.76 441.215 273.451C448.689 281.683 456.224 289.734 465.816 295.878C480.25 305.109 494.17 315.127 506.486 327.203C507.031 327.778 507.606 328.323 508.211 328.837C528.486 344.757 541.528 366.064 552.573 388.794C554.479 392.728 556.567 396.602 558.625 400.476C563.86 410.343 568.369 420.512 572.182 431.014C579.838 452.352 588.099 473.477 596.118 494.694C597.026 496.903 597.812 499.173 598.448 501.473C602.079 515.819 610.128 527.502 620.114 538.004C621.203 539.154 622.535 540.213 623.231 541.575C628.163 551.139 632.945 560.764 637.726 570.388C638.059 571.145 638.119 571.932 637.938 572.719C637.786 573.506 637.363 574.111 636.727 574.595C636.031 574.928 635.305 574.898 634.609 574.535C632.218 572.87 631.401 570.055 630.13 567.634C625.47 558.827 620.75 550.08 614.607 542.211C612.368 539.396 610.068 536.642 607.828 533.857C601.565 525.988 596.662 517.453 594.332 507.526C593.788 505.226 592.607 503.108 591.76 500.868C589.4 494.542 586.828 488.277 584.77 481.861C579.535 465.154 572.968 448.962 566.493 432.709C561.651 420.512 556.204 408.527 550.303 396.905C542.405 381.348 533.569 366.125 523.069 352.051C517.562 344.666 510.118 339.128 503.521 332.772C490.539 320.242 475.227 310.859 460.884 300.145C450.051 292.064 439.127 283.983 431.289 272.634C429.474 270.001 427.628 267.398 426.084 264.644C417.157 248.663 408.17 232.713 399.485 216.612C394.583 207.502 390.195 198.12 385.596 188.858C378.122 173.877 369.951 159.349 361.478 144.912C351.432 127.752 341.628 110.47 331.853 93.1277C324.016 79.266 316.39 65.2832 308.674 51.3307C308.129 50.2714 307.524 49.2121 306.858 48.2133C299.475 38.3164 292.152 28.359 284.647 18.5832C283.013 16.4343 281.197 14.1644 278.383 13.3169C278.05 13.559 277.748 13.8314 277.475 14.1038C278.988 16.3738 280.532 18.5832 282.045 20.7623C280.955 22.2453 279.957 22.0637 278.928 21.0952C274.661 17.0396 271.121 12.1668 265.795 9.26131C265.523 9.74556 265.069 10.2298 265.129 10.3811C266.733 13.0748 268.428 15.7684 270.516 19.1582L267.883 20.8834C267.943 21.6097 267.792 22.4874 268.125 23.002C269.608 25.3627 271.211 27.6024 272.815 29.8723C273.814 31.2645 274.086 32.7475 273.632 34.4121L273.874 34.17C270.425 33.2923 269.245 29.9933 267.278 27.6326C265.28 25.3022 263.737 22.3058 260.802 20.5202L258.169 24.1218C253.812 21.2768 252.783 15.3145 247.82 13.0748C247.578 12.9537 247.185 13.2867 246.64 13.4682C245.762 15.7079 247.85 16.858 248.758 18.3108C250.15 20.611 249.606 22.9112 249.545 25.2719C249.484 26.9062 247.276 27.7234 245.853 26.8457C241.677 24.2126 239.196 20.1267 236.412 16.283C235.807 15.7987 235.171 15.6474 234.445 15.8592C233.931 16.1316 233.325 17.3423 233.537 17.7055C235.262 20.8228 237.169 23.8494 239.075 26.8457C240.316 28.813 242.525 30.1749 242.464 32.8383C238.833 31.9001 238.349 31.5066 234.082 26.543C231.782 23.8797 230.269 20.4294 227.031 18.674C225.639 18.8858 224.217 19.9148 224.732 20.9136C226.547 24.4244 228.786 27.6932 230.874 31.0829C231.661 32.3541 233.083 33.3528 232.266 35.8044C226.487 33.2318 225.004 26.2101 219.496 23.2743C218.286 27.2694 223.037 28.7222 222.795 31.779C222.583 34.3819 221.13 36.8939 221.342 39.7389C221.584 42.826 223.309 44.9446 225.276 46.8816C231.933 53.3282 236.654 61.2276 241.738 68.8243C242.706 70.2468 244.098 71.9719 243.069 74.03C242.676 74.2116 242.283 74.3024 241.859 74.3327C241.466 74.3024 241.133 74.1208 240.891 73.8181C236.563 68.1282 232.811 61.8329 227.848 56.7785C218.982 47.6383 212.234 36.7123 203.247 27.6629C203.035 27.451 202.46 27.5116 202.097 27.6326C201.582 27.8445 201.098 28.1471 200.644 28.4801C202.611 35.4412 210.57 39.4363 211.538 48.2739C204.669 45.3683 203.761 37.8019 198.254 35.1688C196.226 37.2874 199.646 38.7704 198.344 40.889L194.047 41.7365C193.079 42.2207 193.351 42.7958 193.533 43.7037C194.441 48.3344 197.225 52.1781 199.585 56.7483C195.742 57.1115 195.197 54.4178 193.866 52.8743C192.323 51.0583 190.991 49.0608 189.448 47.2448C187.935 45.3986 186.331 43.6129 184.667 41.8878C183.002 40.1626 181.701 38.1954 179.25 37.5295C176.859 40.889 180.4 42.6142 181.156 45.0354C181.913 47.4567 185.544 48.7278 184.425 52.1781C182.427 52.6624 182.064 50.7556 181.005 49.9082C179.462 48.6673 178.07 47.1843 176.406 46.1553C175.225 45.3986 174.076 43.9156 171.806 44.9749L175.104 51.4215C174.166 52.4203 173.622 52.2387 172.865 51.482C170.323 49.0002 167.751 46.4882 165.058 44.1274C164.755 43.8853 163.757 44.4301 162.365 44.7933C166.934 51.361 171.443 57.747 175.952 64.1331C176.859 65.4345 178.1 66.5241 177.919 68.2795C177.798 68.673 177.555 68.9756 177.192 69.1875C176.95 69.3388 176.375 69.4296 176.285 69.2783C173.864 66.1912 171.503 63.0435 169.052 59.9262C167.57 58.0194 164.876 57.8378 163.727 58.9577C161.427 61.3184 158.703 61.4395 155.919 62.3172C151.895 63.5883 150.957 58.7458 147.719 59.1393C147.446 59.4419 147.053 59.684 146.932 60.0472C146.811 60.4407 146.841 60.8039 147.023 61.1973C150.896 67.6439 154.769 74.0603 158.552 80.3253C157.644 82.3531 156.525 81.5662 155.859 80.749C153.559 77.9948 151.35 75.1498 149.292 72.2141C147.053 68.8848 144.299 66.0096 141.092 63.5883C139.427 65.0714 140.517 66.3728 141.364 67.6137C143.18 70.2165 145.056 72.7589 146.902 75.3314C143.755 79.0239 143.301 73.576 139.579 75.6946L138.066 77.3895C134.646 74.2116 131.227 71.0337 126.93 67.0084C128.352 71.5482 128.473 71.7298 131.893 75.1801C134.132 77.4803 136.553 79.5989 138.55 82.0504C140.487 84.5928 142.272 87.2259 143.845 90.0103C145.419 92.5526 148.173 94.9134 145.691 99.0295C140.002 90.5854 135.615 81.4148 126.809 75.967C124.448 77.2987 125.114 79.3568 126.052 80.8701C127.747 83.5637 129.986 85.8942 131.832 88.497C134.313 92.0684 136.643 95.7608 139.034 99.3322L135.251 104.719C137.309 113.164 141.939 120.67 145.843 128.418C154.315 145.094 163.212 161.589 169.96 179.082C171.957 184.258 174.499 189.282 176.92 194.276C181.278 203.265 184.334 212.738 187.299 222.241C192.444 238.555 195.621 255.382 198.98 272.15C199.676 276.084 199.857 280.049 199.525 284.044C199.071 292.518 200.584 300.72 202.248 308.922C204.548 320.212 210.963 329.382 218.347 337.826C223.067 343.183 228.423 348.026 233.749 352.808C238.197 356.803 242.979 360.374 247.639 364.127C256.959 371.603 266.249 379.139 275.66 386.524C281.924 391.457 288.309 396.179 293.665 402.202C297.962 407.044 301.472 412.098 303.62 418.273C305.981 425.052 308.341 431.801 310.368 438.672C314.514 452.836 319.356 466.698 327.435 479.258C332.398 486.946 336.271 495.359 341.325 502.956C351.734 518.513 362.598 533.736 373.31 549.081C374.43 550.685 375.61 552.259 377.305 554.59C371.948 554.438 368.378 553.288 365.715 549.414C356.97 536.581 347.801 524.021 339.328 511.007C331.521 499.022 324.107 486.734 317.177 474.234C313.546 467.545 310.792 460.524 308.886 453.199C306.193 443.212 302.682 433.436 299.596 423.539C296.539 413.672 290.427 405.985 282.499 399.599C275.357 393.818 268.125 388.219 260.923 382.529C252.813 376.112 244.552 369.847 236.594 363.28C225.488 354.139 214.746 344.576 206.696 332.53C203.428 327.657 197.588 326.386 193.654 322.512C193.321 322.179 192.081 322.33 191.627 322.724C191.082 323.268 190.87 323.965 191.052 324.721C191.808 326.113 192.655 327.475 193.594 328.747C194.259 329.745 194.925 330.714 193.987 332.046C191.536 333.075 191.021 328.807 188.479 329.776C188.116 330.018 187.905 330.351 187.874 330.774C187.844 331.198 187.965 331.561 188.298 331.864C191.687 335.798 195.228 339.582 198.405 343.668C200.009 345.726 202.339 347.693 201.461 351.446C198.254 351.143 197.679 348.026 195.954 346.301C194.047 344.273 191.99 342.396 189.841 340.641C187.632 338.976 185.121 337.766 182.609 336.313C182.73 340.974 182.73 340.974 189.236 350.114C188.691 351.93 187.723 351.052 186.815 350.508C183.91 348.782 182.548 345.06 178.978 343.94C177.677 346.664 179.916 347.844 180.521 349.569C181.005 350.962 182.669 351.93 181.883 353.867C177.555 352.899 176.042 347.935 171.503 346.573C168.871 353.02 178.675 354.896 176.738 360.828C171.988 359.951 170.807 353.625 164.846 353.383C167.842 358.831 172.926 362.13 175.589 366.76C174.832 368.274 174.287 368.485 173.622 367.91C169.597 364.248 164.059 362.917 159.308 356.349C160.64 365.065 166.722 367.729 168.054 373.146C165.421 375.326 161.245 374.781 159.127 378.473C164.392 385.676 169.688 393.061 174.953 400.446C175.074 400.597 174.711 401.082 174.408 401.838C169.083 400.083 167.57 394.847 164.483 391.124C161.185 387.19 157.795 383.346 153.922 378.867C153.529 385.707 155.042 391.064 158.612 395.846C156.071 396.784 153.741 396.935 153.014 399.932L146.054 393.878C144.693 394.756 144.602 395.846 145.237 396.905C146.569 399.145 149.232 400.84 147.386 404.229C146.962 405.016 148.475 406.923 149.171 408.285C150.533 411.009 153.377 412.885 153.71 416.215C150.775 417.153 150.291 413.46 147.991 413.581C146.599 414.55 147.598 415.7 147.688 416.79C147.779 417.455 147.87 418.424 147.477 418.817C146.508 419.816 145.419 419.483 144.511 418.515C142.756 416.578 142.272 413.37 138.943 413.067C138.61 413.37 138.005 413.763 138.066 413.914C138.943 416.093 139.912 418.242 141.001 420.664C139.942 421.39 138.61 422.056 137.703 423.085C136.795 424.144 137.067 425.93 135.342 426.838C132.861 428.139 134.223 432.861 130.107 432.982C128.292 435.615 126.385 438.097 124.751 440.821C122.875 443.908 119.728 444.21 116.732 444.997C115.037 443.181 115.703 441.214 116.762 439.549C122.179 431.014 124.66 421.39 127.807 412.008C130.47 404.078 133.436 396.269 136.311 388.4C136.976 386.524 138.126 384.738 138.459 382.801C140.335 371.815 147.174 363.249 152.621 354.079C154.588 350.719 157.947 348.147 160.821 345.423C163.121 343.244 165.633 341.246 168.084 339.218C182.609 327.264 188.419 311.162 190.144 293.093C190.235 291.913 190.265 290.702 190.477 289.522C193.715 272.634 190.053 256.381 186.301 240.038C182.548 223.664 176.042 208.289 169.234 192.974C163.454 179.869 158.522 166.401 151.925 153.629C149.716 149.392 147.658 145.094 145.54 140.796C139.427 128.72 133.254 116.674 127.323 104.508C125.356 100.452 122.845 97.0622 119.183 94.5199C116.793 95.67 118.003 97.9097 117.519 99.6348C117.035 101.36 115.794 100.27 114.644 99.9678C112.98 103.267 116.46 104.719 117.428 107.05C118.457 109.623 119.788 112.104 121.029 114.586C122.088 116.735 123.178 118.884 124.237 121.002C125.508 123.484 126.809 125.966 127.989 128.508C129.109 130.899 131.348 133.078 129.29 136.771C126.506 134.38 124.933 131.323 123.147 128.569C121.18 125.573 119.758 122.243 118.094 119.065C116.641 116.251 115.249 113.375 113.767 110.591C112.072 107.413 110.559 104.114 108.501 101.178C106.625 98.4545 106.201 94.4594 102.449 93.158C100.966 94.8528 101.42 96.3661 102.116 97.8492C103.296 100.391 104.567 102.873 105.717 105.416C106.534 107.171 105.717 108.472 104.144 109.259C102.358 110.167 101.027 109.047 100.18 107.716C99.3626 106.384 99.0902 104.689 98.2127 103.418C97.4562 102.54 96.4879 101.935 95.338 101.632C94.5511 101.39 93.9157 104.144 94.1578 105.749C94.4907 108.018 97.2141 109.592 95.7919 112.407C92.0093 112.558 92.2514 107.383 88.6807 107.171C88.3176 107.474 87.5308 107.807 87.3189 108.351C86.8953 109.562 86.8348 109.411 83.1733 112.891C81.8115 114.193 80.9037 115.978 78.6947 116.826C81.3274 121.699 84.777 125.996 86.3204 131.323C83.6877 133.411 82.326 129.749 80.0262 129.961C77.1514 130.203 76.1528 127.661 74.6701 125.875C73.1873 124.09 71.7046 122.304 70.1008 120.367C68.4667 122.909 68.4365 123.817 69.5561 128.115C66.9234 129.023 66.1367 125.603 63.4435 125.754C63.1711 131.384 67.9825 135.409 69.2838 142.37C63.4738 137.528 62.3541 130.96 56.9375 128.266C54.3654 130.99 59.6609 133.078 57.1796 136.196C54.4258 135.227 53.3668 131.323 50.0381 131.172C49.0395 133.411 47.1331 134.743 44.8939 136.226L57.5427 155.142C54.2141 155.596 54.2141 155.626 50.6433 150.814C49.0093 148.605 47.1331 146.607 45.257 144.368L41.9586 148.363C38.4484 148.423 38.3878 144.428 35.967 143.187C32.6081 144.761 33.3949 149.24 30.4899 151.026C29.4308 150.451 28.3414 149.936 27.2217 149.483C26.1324 149.119 24.6193 150.39 24.9825 151.268C25.9508 153.387 27.0704 155.475 28.0993 157.563C24.9522 160.439 24.9522 160.439 23.53 165.19C21.3513 163.314 19.2935 161.437 17.1147 159.743C16.4188 159.349 15.6926 159.289 14.936 159.591C14.3914 159.894 14.0282 160.348 13.8769 160.953C13.6954 161.528 13.7861 162.103 14.119 162.648C15.2084 164.767 16.3885 166.795 17.5989 168.974C15.7531 169.095 17.9923 170.124 16.6306 170.063C13.6348 169.942 13.4532 165.312 10.0641 166.401C9.82202 166.704 9.27731 167.097 9.33783 167.309C10.4575 171.092 11.0022 174.936 10.9417 178.871C10.9417 180.263 12.1521 181.776 13.0296 183.077C15.9044 187.375 18.9304 191.582 21.7749 195.88C22.4406 196.848 22.6524 198.12 21.1394 199.058C17.9016 198.059 17.1753 194.669 15.3597 192.248C13.4532 189.706 11.4863 187.224 9.45889 184.772C7.55249 182.502 6.34207 179.355 2.31741 178.205C2.04507 182.684 4.61722 185.347 6.25128 188.223C7.8248 190.916 9.82202 193.368 11.8495 196.213L6.4631 199.36C2.16614 197.938 1.16754 192.49 -3.28076 191.189C-3.82544 195.668 -3.82544 195.668 9.82202 216.975C8.91422 219.215 7.73404 218.579 6.52362 217.248C5.01059 215.613 4.58694 212.95 1.95432 212.314L-0.0126343 215.492C-3.1597 214.947 -3.46231 211.648 -5.15689 209.802C-7.00278 207.805 -8.42502 205.414 -10.0288 203.174C-11.4511 203.931 -12.9641 204.899 -12.0563 206.806C-10.3314 210.286 -8.39478 213.676 -6.63965 216.915C-7.18436 217.58 -7.42642 217.883 -7.66852 218.186L-14.5981 211.951C-15.7178 212.859 -16.4138 214.009 -15.7783 215.068C-14.5981 217.096 -12.4496 218.791 -11.8445 220.97C-11.0577 223.815 -13.2969 222.544 -14.6284 222.211C-14.81 222.181 -15.1428 222.756 -15.748 223.482C-7.72903 235.316 2.68054 245.909 8.09717 260.739C3.95148 260.134 3.4068 257.168 1.95432 255.261C0.320221 253.022 -1.19278 250.661 -2.73605 248.361C-4.06754 246.393 -5.36871 244.335 -6.76071 242.398C-8.39478 240.159 -10.1801 238.01 -11.8142 235.891C-15.7178 237.162 -10.9366 240.159 -13.7509 241.884C-18.0176 239.584 -19.2885 234.015 -23.8578 230.443C-24.1302 236.285 -19.924 238.978 -18.7136 242.973C-22.3448 241.672 -22.3448 241.672 -27.0352 236.769C-28.6693 238.01 -28.3364 239.523 -27.3378 240.885C-22.8895 246.938 -18.3807 252.931 -14.114 258.651C-14.7797 260.86 -16.0507 260.649 -16.8072 259.831C-18.9557 257.501 -20.9529 254.989 -22.8895 252.477C-24.8564 249.995 -26.3694 247.301 -29.3955 246C-31.2414 247.786 -29.7889 249.874 -30.152 251.75C-30.6059 254.141 -29.6678 256.139 -28.4574 258.106V262.919C-32.5426 263.07 -33.4504 259.105 -36.537 257.592C-37.5053 261.314 -33.7833 263.13 -33.2688 266.187C-32.9662 268.608 -36.537 268.155 -36.658 270.364C-31.5137 278.324 -31.5137 278.324 -31.4532 283.106C-37.1422 278.384 -39.2604 270.788 -45.7059 266.914C-46.3716 270.788 -46.3716 270.788 -42.5588 278.959C-43.2245 281.562 -44.798 279.534 -46.1295 279.807C-48.2175 282.168 -42.5588 284.468 -45.7361 287.01C-49.3371 286.042 -48.9135 280.685 -52.9986 280.2C-53.2407 280.594 -53.6643 281.017 -53.6038 281.26C-49.791 290.854 -42.1351 298.178 -37.7171 307.197C-38.2618 307.924 -38.746 308.499 -38.746 308.499C-46.5229 302.809 -49.3371 293.003 -56.4483 286.586C-58.5665 289.613 -58.5665 289.613 -54.9655 299.056C-58.385 300.448 -58.5968 295.273 -61.6531 295.878C-63.62 297.421 -61.3808 298.36 -61.0479 299.601C-60.6242 301.235 -55.6615 304.594 -62.5306 303.535C-62.7122 303.535 -63.4687 304.958 -63.2569 305.351C-62.1373 307.409 -60.6848 309.316 -59.5651 311.374C-59.3231 311.828 -59.9283 312.736 -60.1703 313.462C-63.9529 312.857 -64.6791 307.076 -69.8839 307.863C-69.2787 312.191 -64.6791 313.947 -64.0134 317.821C-67.1 317.7 -67.1 317.7 -73.1521 312.887C-73.4849 313.069 -74.1204 313.311 -74.0901 313.432C-73.4244 317.79 -69.1577 320.423 -68.8551 325.357C-73.2126 326.537 -73.6665 321.12 -77.0859 320.605C-77.2069 320.787 -78.024 321.331 -77.9635 321.755C-77.7214 324.328 -74.9677 326.537 -77.2675 329.564C-77.7516 330.199 -76.632 332.469 -75.7545 333.65C-73.4244 336.797 -70.8523 339.794 -68.1591 343.123C-62.2583 341.307 -56.9627 338.674 -51.7579 335.859C-44.4955 331.924 -37.1119 330.865 -28.7903 332.257C-15.1126 334.558 -1.31381 337.009 12.6665 336.041C21.321 335.435 27.1007 339.158 31.3977 346.24C42.2007 364.006 51.4301 382.438 56.181 402.867C56.5441 404.411 57.3914 405.864 57.7242 407.407C60.3267 420.603 68.3154 430.409 78.0593 439.005C91.4646 450.899 105.021 462.612 117.277 475.747C128.988 488.217 140.123 501.261 151.411 514.154C153.226 516.273 154.8 518.573 156.101 521.055C161.608 531.224 169.355 539.941 173.955 550.352C177.011 550.262 178.857 548.657 180.854 547.417C184.546 545.056 188.177 542.635 191.99 540.516C209.147 530.982 203.065 533.222 222.492 532.193C231.691 531.588 240.8 532.223 249.817 534.039C252.904 534.705 256.172 534.644 259.349 534.917L292.696 537.55C294.3 537.671 295.874 537.762 297.447 538.004C308.129 539.487 317.177 543.906 324.016 552.501C330.219 560.31 336.937 567.725 342.808 575.745C348.043 582.858 354.791 586.126 363.324 585.491C372.826 584.734 382.449 584.008 391.739 581.919C404.206 579.075 416.825 577.803 429.625 578.106C442.758 578.439 455.951 577.289 468.994 579.982C471.324 580.467 473.805 580.558 475.984 581.405C486.363 585.491 496.863 589.365 506.94 594.086C518.076 599.353 528.849 605.436 539.803 611.156C552.512 617.694 565.131 624.503 578.415 630.072C589.612 634.703 599.477 641.392 607.919 650.078C614.334 656.767 621.718 662.093 629.465 667.057C635.819 671.143 641.962 675.592 648.287 679.769C650.707 681.373 652.553 683.31 653.37 686.124C652.281 687.94 650.798 687.214 649.346 686.79C643.112 684.944 637.907 681.191 632.793 677.468C621.839 669.478 610.431 662.184 600.808 652.439C595.089 646.749 588.522 642.3 581.139 639.061C563.346 631.011 546.067 621.961 528.97 612.488C527.578 611.731 526.095 611.065 524.521 612.185C523.674 615.03 528.334 615.999 526.7 619.631L519.317 614.092L516.866 617.815C509.603 613.002 505.185 605.012 497.741 600.412L495.199 603.075C492.869 602.198 491.296 598.717 487.937 601.108C486.484 602.167 484.941 601.108 483.579 600.23C482.006 599.171 480.311 598.172 478.828 597.264C476.831 598.566 477.981 600.382 477.436 601.774L477.376 601.834C472.534 601.078 471.021 596.265 467.602 593.723C465.816 592.422 464.636 589.94 461.792 590.727C461.489 590.999 460.944 591.423 460.975 591.514C462.851 594.661 464.757 597.809 467.117 601.683C462.246 601.32 460.188 596.265 455.861 597.083C453.712 594.601 451.685 591.907 447.539 589.668C451.594 595.448 451.594 595.448 456.163 596.75L455.316 600.987C453.167 601.804 452.018 600.563 450.928 599.595C447.63 596.659 444.513 593.602 441.275 590.636C440.276 589.728 438.824 589.637 438.128 590.697C437.704 591.362 438.249 592.694 438.37 593.814C438.128 593.965 437.644 594.48 437.492 594.328C435.072 593.027 432.772 591.544 430.321 590.364C429.201 589.91 428.021 589.819 426.871 590.061C425.237 590.333 425.751 591.726 425.661 592.876C425.449 596.054 422.12 596.538 419.972 598.505L427.385 606.435C426.72 607.191 426.205 607.766 426.175 607.766C420.94 603.681 415.675 599.595 410.53 595.479C404.327 596.265 398.275 599.171 392.102 594.843C393.282 598.324 395.673 600.261 397.488 602.621C399.122 604.74 402.179 605.708 402.723 608.795C398.517 608.039 398.487 608.069 394.492 604.437C391.86 602.016 389.257 599.595 386.564 597.113C383.841 599.353 388.138 602.137 385.384 604.165C383.024 605.92 387.986 608.341 384.93 610.46C380.603 608.402 378.031 604.165 374.309 601.259C372.009 599.413 369.921 600.079 368.226 602.198C367.712 603.62 368.62 604.498 369.437 605.254C374.884 610.521 378.636 617.3 384.688 622.022C396.036 630.859 407.625 639.303 419.488 647.324C431.38 655.344 443.181 663.516 454.741 672.051C463.093 678.225 470.355 685.761 476.771 693.903C484.245 703.315 492.657 711.79 500.858 720.506C503.854 723.624 506.849 726.711 508.514 730.252C507.455 732.28 506.426 731.977 505.246 731.735C500.949 730.888 498.528 727.558 495.895 724.653C485.939 713.757 475.863 702.952 466.3 691.724C457.949 681.887 447.811 674.109 437.22 667.148C420.577 656.192 404.418 644.6 388.198 632.978C384.96 630.678 381.934 628.044 379.181 625.139C365.563 610.611 351.008 596.931 339.237 580.709C334.758 574.595 329.947 568.754 324.803 563.185C322.412 560.552 320.778 555.649 315.452 558.1C313.364 556.284 311.276 554.438 309.158 552.683C308.22 551.866 306.979 551.291 306.041 552.38C305.073 553.439 306.404 554.347 306.768 555.316C306.858 555.8 306.949 556.254 306.979 556.738C304.437 558.07 304.195 555.165 302.834 554.408C301.502 553.591 300.231 552.713 298.991 551.745C297.78 553.772 296.782 555.467 295.571 557.465C298.567 561.49 301.654 565.576 304.619 569.753C304.891 570.146 304.528 571.357 304.074 571.811C303.409 572.083 302.773 572.023 302.168 571.629C297.447 566.272 292.908 560.733 288.157 555.407C285.706 552.804 283.104 550.352 280.38 548.022C279.896 547.568 278.958 547.659 277.627 547.417C278.081 550.443 280.592 551.956 281.742 554.166C282.983 556.587 285.434 558.373 285.555 561.399C284.284 563.276 283.588 561.551 282.983 560.915C279.321 556.708 275.781 552.38 272.119 548.203C271.09 546.993 269.668 545.994 268.034 547.265C266.733 548.294 267.732 549.354 268.155 550.383C268.67 551.502 268.881 552.562 267.792 553.56L262.981 550.14C260.348 554.075 258.351 554.741 255.779 552.32C252.934 549.626 250.846 545.934 246.186 545.358L242.888 551.23C244.673 555.679 248.758 557.949 251.391 561.399C252.117 562.368 252.541 563.457 251.633 564.517C250.544 565.788 249.273 565.183 248.607 564.275C243.917 557.767 237.834 552.592 232.145 547.023C231.207 546.236 230.209 545.48 229.18 544.814C228.968 550.534 235.081 552.38 235.625 557.102C234.839 558.342 233.719 558.464 232.811 557.556C230.814 555.588 229.059 553.409 227.092 551.442C225.125 549.475 223.067 549.929 221.373 552.743C220.828 553.621 221.1 554.983 219.708 555.437L215.078 552.531L212.627 555.619L201.37 545.116C199.404 546.66 200.705 547.901 201.552 549.051C204.124 552.441 207.362 555.346 209.995 560.915C202.399 557.283 199.615 550.534 193.684 547.598C192.081 548.446 189.841 548.839 191.808 551.593C194.562 555.467 197.164 559.462 199.978 563.578C199.615 566.605 199.282 569.722 198.889 573.233C191.112 570.237 187.42 562.126 179.643 559.25C184.243 566.908 184.243 566.908 184.425 571.72C182.185 572.719 181.156 570.57 179.099 569.662C177.495 572.81 181.399 574.262 181.338 576.653C180.703 576.774 179.674 577.198 179.311 576.895C176.103 574.111 173.44 570.661 169.325 568.36C170.354 573.748 170.475 573.596 175.468 579.377C177.919 582.192 181.731 584.129 182.7 589.486C176.92 587.004 174.106 582.585 170.232 579.559C169.96 579.65 169.385 579.74 169.385 579.831C169.325 581.254 169.355 582.646 169.355 584.099C165.724 585.158 166.178 581.405 164.574 580.073C162.758 578.56 161.215 576.684 158.764 576.139C157.281 576.714 157.553 577.713 158.068 578.832C158.522 579.831 159.46 580.86 158.068 582.162L152.954 579.226C151.895 580.951 152.349 581.919 153.105 582.918C157.039 587.912 160.973 592.936 164.907 597.96C166.238 599.655 166.874 601.38 164.846 603.408C159.278 600.715 158.28 593.511 152.742 590.787C151.138 592.21 152.833 594.873 150.351 596.326C146.175 594.086 144.178 589.486 140.789 586.308C139.791 585.37 138.641 585.884 137.793 586.883C137.854 590.908 143.18 592.936 141.939 597.506C133.981 597.083 134.071 596.841 127.686 591.605C126.385 590.545 124.933 590.152 123.48 592.664C127.565 599.837 135.312 604.77 138.731 612.76C137.581 613.88 136.401 614.122 135.463 613.063C132.528 609.794 129.744 606.435 126.869 603.106C125.387 601.38 124.237 599.262 121.876 598.445C120.999 603.257 125.689 605.92 126.294 610.127C125.417 611.186 124.388 611.64 123.359 610.43C120.817 607.434 118.396 604.346 114.826 602.561C112.223 605.164 117.852 607.645 114.674 610.157C110.468 607.555 108.441 602.258 103.266 600.382C101.208 604.013 105.717 605.194 105.475 608.22C101.662 609.855 100.18 603.378 95.8221 605.527C96.8207 608.463 98.8784 610.732 101.178 612.669C110.68 620.75 118.064 630.678 125.992 640.181C127.505 641.967 129.018 644.025 126.597 646.718C116.853 638.486 111.255 626.289 100.482 619.086C97.0023 621.658 103.508 623.686 99.7863 626.652C96.397 626.289 95.9734 621.779 93.3105 619.933C90.466 617.905 87.5913 615.968 83.7784 613.366C84.4139 618.329 88.136 620.054 89.1951 623.444C88.5596 626.38 83.8693 626.077 83.6877 630.466L71.9467 620.024C70.1008 621.87 72.0677 622.809 72.9755 623.807C77.6961 629.043 83.0825 633.795 87.0466 639.515C86.744 639.999 86.3809 640.484 86.0178 640.907C77.8172 636.761 73.4899 627.802 65.1985 623.928C63.1106 625.078 63.5342 626.561 64.5328 627.863C67.0444 630.95 69.7074 633.946 72.2795 636.973C73.2479 638.123 74.6701 639.122 74.0952 640.998C71.8256 642.179 70.8572 639.697 69.1929 639.243L66.3787 641.725L54.91 631.949C53.6088 633.19 53.6088 634.249 54.5167 635.308C56.3323 637.397 58.1782 639.455 60.0543 641.573C58.6623 644.933 59.8425 649.654 54.5167 650.653C54.6074 655.314 59.3885 657.614 60.1754 662.003C58.5413 664.091 57.694 661.761 56.8467 661.155C53.6088 658.855 52.7918 654.194 48.6158 652.741C46.2858 654.194 48.3132 655.314 49.0395 656.222C50.2499 657.765 51.4906 659.097 50.5223 661.912C45.0754 658.068 41.5349 653.226 37.2077 649.231C35.5736 647.717 34.4843 648.716 33.4251 650.32C33.5462 653.377 36.3301 654.618 38.0247 656.646C39.7193 658.643 41.5349 660.701 43.6229 663.153C39.0536 662.638 39.0536 662.638 29.0979 655.072C28.8558 658.038 31.3069 658.976 32.5173 660.61C33.6067 662.093 35.1802 663.365 35.0895 665.665C30.0359 666.27 28.5229 660.156 23.53 659.884C21.6538 663.637 25.9811 665.06 26.7376 667.814C23.53 669.902 21.8959 666.512 19.4751 665.725C16.7516 667.269 20.3224 668.843 19.0212 670.719C17.0845 672.051 15.1176 668.752 12.7875 669.841C6.79596 676.197 0.804413 682.553 -5.21741 688.848C-5.7016 689.363 -6.63965 689.423 -7.36591 689.696C-8.57632 689.181 -9.33282 688.183 -9.06049 687.002C-8.72763 685.398 -8.09216 683.915 -7.12381 682.553C-0.466522 674.109 6.0697 665.604 14.0585 658.28C21.4117 651.561 28.4624 644.539 35.2408 637.215C45.5898 625.956 57.4216 616.604 70.7968 609.189C84.7166 601.441 98.6061 593.632 113.161 587.065C128.443 580.225 143.301 572.537 157.705 564.002C162.546 561.127 166.571 557.435 170.686 553.137C165.663 547.901 162.153 542.09 158.643 536.339C147.779 518.573 133.92 503.138 119.94 487.884C104.87 471.419 88.4991 456.226 71.7953 441.396C66.9537 437.098 63.0501 432.134 59.2372 427.019C56.6046 423.448 54.789 419.483 53.8207 415.155C50.9762 402.686 46.6489 390.701 41.9888 378.867C37.934 368.334 32.6686 358.437 26.1627 349.206C23.4089 347.542 22.017 350.931 19.9895 349.297C18.4765 348.086 16.8727 346.997 15.1478 345.726C12.7573 350.144 18.1739 352.172 17.1753 355.713C16.6911 356.621 16.1767 356.47 15.2386 355.955C11.3048 353.716 8.67212 350.205 5.82764 346.876C5.43427 346.361 4.91983 346.089 4.28436 345.998C3.67914 345.937 3.10419 346.119 2.62003 346.513C2.37796 350.447 7.09857 352.475 6.85648 356.773C3.28577 356.682 2.77133 353.322 0.895172 351.627C-0.829651 350.054 -2.13086 347.996 -5.00558 348.268C-8.24347 348.601 -9.33282 344.999 -11.9958 344.152C-13.9627 345.272 -16.7769 344.697 -18.1386 347.723C-15.1428 352.505 -11.9958 357.469 -8.87894 362.493C-8.78815 362.644 -9.21179 363.128 -9.66571 364.036C-12.9944 362.432 -14.2955 359.043 -16.323 356.44C-18.8044 353.322 -20.9831 349.902 -25.2801 349.025C-29.9704 348.086 -31.9071 343.668 -34.6608 341.155C-37.6869 341.761 -38.0802 345.937 -41.3484 344.273C-42.3167 346.21 -42.6798 348.994 -45.9177 346.815C-46.7044 351.083 -41.2273 352.656 -42.6193 356.712C-45.6151 357.529 -45.9177 353.897 -48.0964 353.564C-49.7305 354.261 -48.5503 358.316 -51.5764 356.894C-54.1485 355.683 -53.8156 358.558 -55.3287 358.679C-59.2323 357.257 -60.6848 352.475 -64.8002 350.538C-66.5855 354.563 -63.499 356.198 -62.3793 358.437C-61.1084 360.919 -59.323 363.098 -57.9311 365.519C-56.5996 367.82 -54.0275 369.575 -54.6024 373.298C-60.0493 372.117 -59.7164 365.913 -63.4687 363.522C-67.1 361.222 -68.0683 356.319 -72.6074 353.776C-74.2112 360.495 -67.4328 362.856 -66.525 367.971C-73.0008 369.091 -74.9374 362.523 -79.0831 359.829C-81.2013 363.249 -78.8108 364.793 -77.5398 366.579C-76.3294 368.243 -75.24 369.817 -75.9965 372.057C-78.5081 373.691 -79.537 369.514 -81.8973 370.453C-82.2907 370.634 -82.5328 370.937 -82.6236 371.391C-82.7144 371.815 -82.5933 372.208 -82.2907 372.541C-77.6609 379.502 -73.031 386.463 -68.3709 393.394C-66.404 396.36 -63.9832 399.114 -63.62 402.898C-63.6503 403.685 -63.9529 404.35 -64.5883 404.865C-65.3146 405.107 -65.9803 405.016 -66.5553 404.532C-70.3076 398.963 -73.8481 393.303 -77.5701 387.734C-79.3252 385.101 -81.3526 382.65 -83.259 380.108C-91.3991 381.348 -92.0951 372.269 -97.542 369.847C-98.8129 370.453 -99.055 371.3 -98.3287 372.45C-96.4526 375.507 -94.5764 378.564 -92.8818 381.379C-93.6081 384.466 -95.2724 382.256 -96.4223 382.529C-97.542 382.801 -98.5406 383.164 -99.4786 383.497C-107.891 374.872 -107.891 374.872 -111.25 375.78C-110.857 380.077 -106.196 381.833 -105.349 385.888C-105.5 388.461 -107.831 386.221 -108.557 387.25C-109.132 388.249 -109.616 389.278 -109.949 390.368C-112.279 390.822 -113.066 388.431 -114.851 387.765C-115.154 388.249 -115.85 388.824 -115.728 389.217C-115.214 391.306 -112.702 393.122 -115.275 395.906C-119.239 391.397 -121.599 385.767 -125.866 381.923C-129.951 384.163 -123.445 389.036 -129.255 390.337C-133.431 391.639 -136.517 387.371 -141.359 386.403C-138.999 394.605 -132.916 399.508 -129.618 406.015C-130.798 408.103 -132.251 407.437 -133.189 406.166C-137.032 401.082 -140.693 395.846 -144.506 390.761C-145.414 389.52 -146.655 388.279 -148.47 389.702C-149.136 392.516 -145.021 393.788 -146.08 396.784C-146.957 397.389 -146.957 397.389 -154.068 391.306C-157.094 392.577 -159.969 395.392 -163.207 391.306C-164.327 395.664 -160.514 396.814 -160.514 399.599C-161.149 399.841 -162.118 400.476 -162.511 400.264C-164.206 399.235 -165.567 397.571 -167.353 396.905C-168.533 396.451 -170.258 397.692 -171.619 397.48C-174.403 397.026 -174.706 393.001 -177.823 392.819C-180.183 394.211 -176.068 396.269 -178.337 397.692C-180.97 397.631 -181.242 393.878 -184.056 394.121C-186.114 395.997 -181.726 398.327 -184.48 400.204C-188.898 399.114 -189.806 393.546 -194.315 392.305C-193.952 398.691 -193.952 398.691 -179.215 418.242C-180.365 419.937 -181.999 420.028 -183.118 418.636C-185.6 415.579 -187.779 412.28 -190.23 408.86L-196.04 410.313L-201.123 403.2C-203.121 406.439 -200.609 407.468 -199.852 409.072C-199.187 410.434 -197.885 411.584 -198.733 413.4C-201.033 414.005 -201.426 411.16 -203.635 410.797C-205.783 412.098 -206.147 414.792 -207.478 416.88C-206.328 422.237 -201.486 425.203 -199.156 429.774C-198.975 430.167 -199.55 431.105 -199.943 431.62C-200.306 431.832 -200.669 431.862 -201.063 431.68C-202.455 430.288 -203.786 428.866 -205.087 427.413C-207.72 424.447 -209.203 420.543 -212.895 418.394C-216.496 422.328 -210.867 426.172 -212.804 430.016C-214.377 431.196 -215.679 429.501 -217.161 429.622C-216.829 426.051 -219.128 423.811 -221.307 421.572C-222.124 420.724 -223.032 420.149 -223.788 421.905C-222.003 424.81 -220.157 427.746 -216.738 429.259L-216.95 429.289ZM-70.9431 344.576C-76.2084 339.4 -78.4779 333.105 -84.3181 329.866C-86.4969 332.499 -84.9536 334.406 -83.5616 336.434C-82.321 338.22 -79.6883 339.521 -81.4737 342.76C-85.1957 342.457 -85.4983 337.221 -89.1901 337.1C-90.5821 338.795 -88.7664 339.975 -88.5546 341.398C-88.3125 342.82 -89.2506 343.365 -90.6729 342.971C-91.7017 342.669 -92.7608 342.427 -93.7291 342.185C-94.3949 343.456 -94.758 344.697 -95.5448 345.514C-97.0275 346.936 -97.784 348.692 -97.9051 350.75C-97.9353 351.143 -98.1169 351.446 -98.4195 351.658C-99.3878 352.142 -101.052 350.841 -101.446 352.445C-102.142 355.471 -105.077 355.108 -106.892 356.44C-107.225 356.652 -107.498 356.954 -107.679 357.317C-107.861 357.983 -108.163 358.921 -107.861 359.285C-107.467 359.799 -106.348 360.314 -105.833 360.102C-97.7235 356.863 -89.6137 353.625 -81.5645 350.175C-78.3568 348.782 -75.3005 346.876 -70.9431 344.576ZM-393.156 526.079C-392.399 530.407 -392.43 530.407 -389.131 533.343C-388.496 533.888 -387.921 533.646 -387.255 532.102C-389.494 530.589 -389.706 526.987 -393.156 526.079Z" fill="#6F97B5"/>
<path d="M201.855 644.388C198.102 644.449 197.255 640.332 194.047 641.029C193.926 644.539 198.526 645.175 198.375 648.595C197.679 648.777 196.71 649.352 196.287 649.079C193.109 646.991 190.598 643.813 186.18 642.088C186.27 647.263 191.899 648.202 191.899 652.439C189.781 654.073 188.358 651.985 186.815 651.258C185.03 650.411 183.456 649.109 181.641 647.929C181.156 649.14 180.945 650.35 180.249 651.168C178.887 652.862 175.467 652.136 175.256 655.314C170.989 657.281 166.722 659.309 162.425 661.155C161.941 661.367 160.852 660.822 160.458 660.278C160.035 659.763 159.793 658.583 160.095 658.219C164.271 653.468 168.538 648.777 172.865 644.116C183.244 633.069 193.351 621.78 201.734 609.128C206.787 601.532 213.323 596.144 221.887 593.057C226.002 591.574 229.876 589.516 234.021 588.094C237.774 586.732 241.587 585.763 245.52 585.128C253.812 583.978 262.043 582.737 270.031 580.225C270.697 579.952 271.363 579.952 272.028 580.194C272.664 580.437 273.178 580.86 273.511 581.496C274.086 584.825 270.213 586.096 269.063 588.82C269.335 592.089 273.874 594.661 270.637 598.505C266.854 597.204 266.521 592.603 263.162 590.969C262.496 590.666 261.558 590.454 261.044 590.727C260.439 591.241 260.197 591.877 260.257 592.634C260.469 594.45 262.678 595.963 261.104 598.112C257.11 597.93 256.596 591.484 251.179 592.997C255.537 601.411 265.855 604.8 268.579 614.153C268.639 614.364 268.095 614.758 267.762 615.121C262.769 610.611 258.381 605.375 252.571 602.077C248.819 603.65 253.903 606.405 251.361 608.009C249.817 608.281 251.754 609.128 250.483 608.16C245.762 604.528 242.978 598.838 237.592 595.872C235.383 597.022 236.715 598.263 237.441 599.474C238.893 601.804 241.798 603.075 242.373 606.011C242.494 606.556 241.708 607.282 241.405 607.918C237.562 606.102 236.17 601.138 231.358 600.291C230.753 603.681 233.81 604.922 235.262 607.04C236.563 608.917 238.076 610.642 240.558 613.729C232.448 611.308 229.785 603.892 223.128 601.623C221.282 606.011 226.789 607.252 226.396 610.611C223.582 611.489 222.643 608.039 219.648 607.948C219.254 611.217 218.891 614.546 218.528 617.784C214.867 618.571 214.14 614.395 211.296 614.183C210.297 614.667 210.176 615.212 210.781 615.969C212.264 617.845 213.717 619.721 215.109 621.477C215.23 623.989 211.508 623.172 211.871 625.623C212.113 627.137 213.232 628.892 212.748 630.072C211.81 632.403 213.021 636.579 208.179 635.581C209.48 640.393 214.534 641.876 215.32 646.476C211.78 646.809 210.358 644.085 208.3 642.481C206.121 640.726 204.064 638.88 202.127 636.882C200.22 634.975 198.829 632.524 195.984 631.797C195.742 632.161 195.288 632.463 195.288 632.766C195.5 637.427 201.34 638.819 201.794 644.388H201.855Z" fill="#6F97B5"/>
<path d="M329.977 216.642C332.912 217.671 334.062 220.395 335.424 222.726C351.825 250.994 371.04 277.446 388.017 305.291C398.335 322.209 413.042 333.831 430.018 343.214C435.586 346.27 440.912 349.751 446.268 353.232C453.046 357.65 458.433 363.431 462.397 370.513C467.48 379.23 470.809 388.552 472.383 398.509C474.864 414.247 478.495 429.713 483.216 444.937C487.815 459.828 495.35 473.508 504.035 486.401C509.573 494.633 516.169 502.139 522.403 509.917C528.879 518.029 534.205 526.927 539.137 535.946C545.038 546.751 550.031 558.07 555.387 569.147C552.906 570.873 552.089 570.873 551.06 568.966C546.339 560.249 541.437 551.563 536.928 542.695C531.844 532.738 525.822 523.386 518.832 514.669C508.181 501.322 497.983 487.581 489.601 472.569C481.37 457.769 476.619 441.819 472.958 425.506C470.355 413.854 468.237 402.141 465.877 390.458C463.244 377.384 456.405 367.063 445.814 359.012C438.794 353.655 430.956 349.781 423.512 345.241C417.067 341.307 410.712 337.312 404.811 332.469C398.668 327.324 393.403 321.392 389.015 314.673C378.545 299.177 368.196 283.62 358.18 267.822C348.587 252.689 339.539 237.223 330.219 221.939C329.251 220.214 328.131 218.519 330.038 216.642H329.977Z" fill="#6F97B5"/>
<path d="M14.4516 299.026C12.4544 298.087 12.2426 296.544 12.9385 295.121C14.6029 291.52 16.479 288.009 18.5367 284.619C21.1089 280.503 22.6219 276.024 24.1349 271.484C30.0962 253.839 36.0878 236.164 43.6832 219.124C45.9224 214.07 47.3144 208.622 50.9154 204.203C52.9126 201.721 54.7887 199.239 57.4517 197.363C69.1019 189.07 80.6311 180.656 92.2209 172.333C92.9169 171.97 93.6431 171.728 94.3996 171.546C96.0034 172.394 95.0351 173.453 94.5812 174.391C92.4932 178.326 89.7093 181.655 86.1991 184.409C80.6614 188.858 75.1843 193.58 69.0414 197.06C57.9661 203.295 50.9154 212.647 47.2539 224.299C44.4094 233.44 40.3848 242.035 36.9048 250.903C31.4579 264.916 26.3137 279.111 19.0209 292.337C17.7197 294.728 16.8724 297.512 14.4516 299.026Z" fill="#6F97B5"/>
<path d="M552.421 545.51C551.574 544.662 550.485 543.936 550 542.907C541.649 525.625 530.452 510.099 520.86 493.574C512.266 478.774 503.46 464.095 494.957 449.265C493.292 446.329 490.932 443.454 490.932 439.761C491.9 439.519 492.839 438.974 493.202 439.247C494.2 439.943 494.987 440.821 495.592 441.88C503.581 456.529 513.869 469.785 521.192 484.978C525.974 494.936 532.994 503.834 538.955 513.247C545.159 522.992 549.668 533.555 553.268 544.511C553.268 544.723 552.754 545.116 552.421 545.51Z" fill="#6F97B5"/>
<path d="M89.5581 474.779C90.6777 473.235 91.7369 472.539 92.8868 473.084C94.3393 473.75 95.6405 474.627 96.7298 475.778C105.99 486.128 115.401 496.298 123.177 507.92C129.078 516.848 136.008 525.08 142.484 533.646C143.936 535.552 145.722 537.308 146.629 539.426C147.87 542.362 152.439 544.269 149.746 548.506C145.6 548.385 145.389 544.511 143.573 542.12C138.489 535.492 133.284 529.015 128.261 522.326C123.268 515.638 118.366 508.949 113.585 502.109C109.016 495.541 103.236 490.093 97.8797 484.282C94.9747 481.135 91.7066 478.259 89.5581 474.779Z" fill="#6F97B5"/>
<path d="M363.899 179.143C360.298 174.875 356.697 170.911 354.064 166.129C350.796 160.227 347.558 154.265 343.806 148.635C335.454 136.075 326.769 123.726 318.236 111.257C316.844 109.32 315.573 107.322 314.484 105.204C314 104.205 314.575 102.964 315.694 102.298C324.379 108.684 350.675 149.634 362.295 170.971C363.596 173.332 365.503 175.693 363.929 179.143H363.899Z" fill="#6F97B5"/>
<path d="M288.066 455.469C289.489 453.199 290.971 453.109 292.182 454.561C294.966 457.921 297.75 461.311 300.261 464.882C311.004 480.196 321.474 495.723 330.098 512.399C331.581 515.244 332.822 518.18 333.85 521.206C334.123 521.963 333.185 523.174 332.489 525.171C318.75 500.384 303.408 477.745 288.066 455.469Z" fill="#6F97B5"/>
<path d="M370.526 311.737C365.987 305.079 361.206 298.723 357.181 291.943C351.099 281.683 345.017 271.423 337.936 261.799C337.421 261.193 337.088 260.467 336.967 259.68C336.967 258.893 337.24 258.227 337.845 257.713C338.571 257.41 339.267 257.471 339.933 257.894C346.106 265.158 352.219 272.483 356.788 280.927C361.387 289.341 367.47 296.756 370.919 305.745C371.646 307.561 372.765 309.346 370.587 311.737H370.526Z" fill="#6F97B5"/>
<path d="M273.693 34.3819C274.419 34.5635 275.448 34.5332 275.841 34.9872C278.444 37.923 280.895 40.9798 284.375 45.217C277.052 40.9496 276.9 40.7982 273.935 34.17L273.693 34.3819Z" fill="#6F97B5"/>
<path d="M477.406 601.774C480.976 601.804 482.822 604.135 484.214 607.01C484.305 607.191 483.942 607.676 483.7 607.888C483.488 608.099 483.064 608.432 482.883 608.342C480.159 606.949 477.285 605.618 477.345 601.834L477.406 601.774Z" fill="#6F97B5"/>
</svg>
