<svg xmlns="http://www.w3.org/2000/svg" viewBox="0 0 176.25 33.75" version="1.0"><defs><clipPath id="a"><path d="M.277 0H175.23v23H.277Zm0 0"/></clipPath></defs><g clip-path="url(#a)"><path fill="#4D4C4D" d="M174.45 15.922c-6.145 1.746-11.509-1.676-16.872-4.25-1.32-.762-2.637-1.524-4.023-2.238a18.433 18.433 0 0 0-6.828-1.778 18.416 18.416 0 0 0-7 .883c-7.086 2.238-13.723 6.848-20.848 9.219a37.837 37.837 0 0 1-10.293.883 37.927 37.927 0 0 1-10.152-1.91c-1.407-.72-2.77-1.59-4.09-2.551-5.004-3.27-9.63-7.094-14.703-10.25a18.909 18.909 0 0 0-6.704-2.594A29.246 29.246 0 0 0 63.68.859a29.337 29.337 0 0 0-8.953 2.422C49.14 5.7 44.25 9.637 39.086 12.68a75.15 75.15 0 0 1-19.773 8.77c-6.27.75-12.415.167-18.434-1.747-.379-.133-.535.473-.156.629 11.73 4.473 24.914 2.797 36.199-2.238a72.7 72.7 0 0 0 13.406-8.055 48.294 48.294 0 0 1 8.734-4.05.338.338 0 0 0 .247-.223l1.05-.313h.403a31.776 31.776 0 0 1 5.629-1.121c6.144-.602 10.859 2.238 15.64 5.55a102.5 102.5 0 0 0 15.106 9.22 83.383 83.383 0 0 1-9.496-1.122c-.067.028-.098.075-.098.149 0 .07.031.117.098.144a54.592 54.592 0 0 0 13.078 2.938c4.48.441 8.945.336 13.398-.32a35.09 35.09 0 0 0 12.38-2.93 165.221 165.221 0 0 0 10.66-4.23l2.5-.606a51.249 51.249 0 0 1 8.202-.918l3.442.293 1.941.516a63.494 63.494 0 0 1 7.778 2.64 18.747 18.747 0 0 0 6.324 1.946c2.539.57 5.02.375 7.437-.582.606-.27.36-1.297-.332-1.098Zm0 0"/></g><path fill="#4D4C4D" d="M72.805 13.82c-7.395-3.468-14.012 1.387-20.11 5.325-7.933 5.125-18.078 9.128-27.617 8.234-.246 0-.223.336 0 .379a42.219 42.219 0 0 0 22.523-4.473c8.223-3.672 15.192-11.656 24.958-8.95.336.224.601-.358.246-.515ZM80.156 16.816a7.902 7.902 0 0 1-2.77-.914c-.136 0-.269.133-.136.2.879.566 1.84.894 2.883.984.09.008.137-.031.144-.121.008-.09-.03-.14-.12-.149ZM159.879 20.531c-5.07-1.004-10.324-4.472-15.64-3.625-6.434 1.055-12.266 4.297-18.68 5.574-.18 0 0 .29 0 .266 5.652-.828 10.992-3.043 16.625-4.027 6.12-1.094 11.46 2.394 17.496 2.707a.444.444 0 0 0 .343-.059.446.446 0 0 0 .204-.285.436.436 0 0 0-.063-.348.437.437 0 0 0-.285-.203ZM89.383 30.266c-6.703-1.61-13.742-5.774-20.824-4.477-6.457 1.277-11.329 6.402-18.301 5.707-.246 0-.29.379 0 .426 5.344.828 9.789-1.387 14.523-3.535 8.469-3.828 16.156.828 24.582 2.035.11.113.176-.113.02-.156ZM151.68 27.266c-6.325-3.801-13.856-.403-20.11 2.015-9.386 3.649-19.687 3.266-29.539 2.239-.246 0-.222.335 0 .378a72.175 72.175 0 0 0 25.09-.199c8.137-1.77 15.645-8.39 24.2-3.96.14.042.257.007.347-.11.086-.117.094-.238.012-.363ZM166.36 22.39h-.516c-.313 0-.313.493 0 .493h.472a.256.256 0 0 0 .18-.059.23.23 0 0 0 .086-.168.236.236 0 0 0-.055-.18.236.236 0 0 0-.168-.085Zm0 0"/></svg>