<svg fill="none" xmlns="http://www.w3.org/2000/svg" viewBox="0 0 732 159"><path d="M723.53 75.0098c-28.901 8.226-54.127-7.8948-79.354-20.0223-6.21-3.5885-12.401-7.1771-18.924-10.5448-10.16-4.8583-20.872-7.6555-32.116-8.3732-11.245-.7361-22.214.6441-32.925 4.159-33.329 10.5448-64.545 32.2601-98.058 43.4305-15.948 3.607-32.098 4.9872-48.414 4.1591-16.333-.8097-32.245-3.8278-47.752-8.999-6.614-3.3861-13.026-7.4899-19.236-12.017-23.536-15.4031-45.29-33.4194-69.157-48.2889-9.72-6.0913-20.229-10.15831-31.529-12.21942-14.386-3.07327-28.919-3.80938-43.544-2.24514-14.644 1.56423-28.681 5.37361-42.112 11.40976-26.273 11.3913-49.277 29.9413-73.566 44.2771C57.8316 77.991 26.836 91.7747-6.16232 101.05c-29.48898 3.533-58.39008.791-86.70328-8.2264-1.7822-.6257-2.5171 2.2268-.7349 2.9629C-38.4257 116.858 23.5839 108.963 76.6642 85.2417c22.3786-10.3792 43.3978-23.0219 63.0568-37.9465 13.063-7.7292 26.752-14.0966 41.083-19.0837.569-.1472.955-.4969 1.157-1.049l4.943-1.4722h1.892c8.672-2.558 17.491-4.3246 26.476-5.2816 28.901-2.834 51.077 10.5448 73.566 26.1504 22.434 16.5256 46.117 31.0086 71.049 43.4305-14.992-.9017-29.874-2.6684-44.665-5.2816-.312.1288-.459.3497-.459.6993 0 .3313.147.5521.459.6809 19.935 7.1403 40.44 11.7594 61.514 13.8389 21.074 2.0799 42.074 1.5829 63.02-1.509 20.247-1.049 39.668-5.6497 58.225-13.8021 16.921-6.0177 33.733-12.7715 50.14-19.9302l11.759-2.8524c12.751-2.4844 25.612-3.9198 38.584-4.3247l16.187 1.3802 9.131 2.4292c12.457 3.3493 24.657 7.5083 36.581 12.4403 9.371 4.8215 19.292 7.8764 29.746 9.1645 11.943 2.6868 23.61 1.7667 34.983-2.742 2.848-1.2698 1.69-6.1097-1.562-5.1711Z" fill="#fff"/><path d="M245.44 65.109c-34.78-16.3416-65.904 6.533-94.585 25.083-37.316 24.144-85.0314 43.007-129.8988 38.793-1.1575 0-1.0473 1.583 0 1.785 18.2814 1.454 36.4341.387 54.4215-3.184 17.9874-3.588 35.1663-9.551 51.5183-17.887 38.676-17.2986 71.454-54.9139 117.387-42.1608 1.58 1.049 2.829-1.693 1.157-2.4292ZM280.019 79.224c-4.612-.6257-8.948-2.0611-13.027-4.3063-.643 0-1.268.6257-.643.9386 4.134 2.6684 8.654 4.2142 13.56 4.6375.422.0368.643-.1472.679-.5705.037-.4233-.147-.6625-.569-.6993ZM654.998 96.725c-23.848-4.7295-48.56-21.0712-73.566-17.0778-30.261 4.9688-57.692 20.2431-87.861 26.2608-.845 0 0 1.362 0 1.251 26.586-3.901 51.702-14.3354 78.196-18.9729 28.791-5.1528 53.907 11.2809 82.294 12.7529.57.129 1.121.037 1.617-.276s.827-.7727.955-1.3432c.129-.5889.037-1.141-.294-1.6378-.312-.4969-.753-.8282-1.341-.957ZM323.416 142.585c-31.528-7.582-64.637-27.2-97.948-21.09-30.371 6.018-53.282 30.162-86.078 26.887-1.158 0-1.36 1.785 0 2.005 25.134 3.902 46.043-6.532 68.311-16.654 39.834-18.035 75.992 3.901 115.623 9.588.515.534.827-.534.092-.736ZM616.432 128.451c-29.746-17.906-65.17-1.895-94.585 9.496-44.151 17.188-92.601 15.385-138.939 10.545-1.157 0-1.047 1.583 0 1.785 39.393 6.588 78.73 6.275 118.012-.938 38.271-8.337 73.584-39.53 113.822-18.661.661.203 1.212.037 1.635-.515.404-.552.441-1.123.055-1.712ZM685.479 105.485h-2.425c-1.47 0-1.47 2.318 0 2.318h2.223c.312.019.588-.073.845-.276.239-.202.386-.46.404-.791.037-.313-.055-.589-.257-.846-.202-.24-.478-.387-.79-.405Z" fill="#fff"/></svg>