<svg xmlns="http://www.w3.org/2000/svg" viewBox="0 0 43.5 33.75" version="1.0"><defs><clipPath id="a"><path d="M21 .066h2V11h-2Zm0 0"/></clipPath><clipPath id="b"><path d="M32 20h11.004v3H32Zm0 0"/></clipPath><clipPath id="c"><path d="M8 32h28v1.434H8Zm0 0"/></clipPath></defs><path fill="#111" d="M13.703 21.488c0-4.48 3.664-8.125 8.168-8.125s8.172 3.645 8.172 8.125c0 1.258 1.652 1.258 1.652 0 0-5.39-4.41-9.777-9.824-9.777s-9.82 4.387-9.82 9.777c0 .938 1.652.938 1.652 0"/><g clip-path="url(#a)"><path fill="#111" d="M21.871 10.633a.825.825 0 0 0 .828-.824V.895a.828.828 0 0 0-1.656 0v8.914c0 .457.371.824.828.824"/></g><g clip-path="url(#b)"><path fill="#111" d="M42.45 20.785h-8.962a.824.824 0 0 0-.828.82c0 .457.371.825.828.825h8.961a.825.825 0 0 0 .828-.825.824.824 0 0 0-.828-.82"/></g><path fill="#111" d="M10.84 21.367a.825.825 0 0 0-.828-.824H1.05a.825.825 0 0 0-.828.824c0 .453.37.82.828.82h8.96a.824.824 0 0 0 .829-.82M30.172 14.05c.21 0 .426-.077.586-.238l6.336-6.3a.823.823 0 0 0 0-1.168.823.823 0 0 0-1.168 0l-6.34 6.3a.83.83 0 0 0 0 1.168c.164.16.375.239.586.239M12.984 13.813a.843.843 0 0 0 1.172 0 .823.823 0 0 0 0-1.168L7.82 6.344a.823.823 0 0 0-1.168 0 .823.823 0 0 0 0 1.168l6.332 6.3"/><g clip-path="url(#c)"><path fill="#111" d="M34.883 32.07H8.859a.859.859 0 1 0 0 1.715h26.024a.859.859 0 1 0 0-1.715"/></g><path fill="#111" d="M10.258 28.938c0 .476.383.855.86.855h21.51a.856.856 0 1 0 0-1.711h-21.51a.856.856 0 0 0-.86.855M30.371 25.809a.856.856 0 1 0 0-1.711H13.375a.856.856 0 1 0 0 1.71h16.996"/></svg>