<svg fill="none" xmlns="http://www.w3.org/2000/svg" viewBox="0 0 80 63"><g clip-path="url(#clip0_381_10)"><path fill-rule="evenodd" clip-rule="evenodd" d="M68.5 5.728h-57l26.771 20.746a2.82 2.82 0 0 0 3.459 0L68.5 5.728ZM6.005 8.673V57.1h67.991V8.673L45.184 30.998a8.45 8.45 0 0 1-10.367 0L6.005 8.673ZM.338 5.728C.338 2.578 2.875.02 6.005.02h67.991c3.13 0 5.667 2.557 5.667 5.707V57.1c0 3.154-2.538 5.706-5.667 5.706H6.005c-3.13 0-5.667-2.552-5.667-5.706V5.728Z" fill="#6F97B5"/></g><defs><clipPath id="clip0_381_10"><path fill="#fff" d="M0 0h80v62.564H0z"/></clipPath></defs></svg>