<svg fill="none" xmlns="http://www.w3.org/2000/svg" viewBox="0 0 80 79"><path d="M40.001.033C17.966.033.097 18.017.097 40.203c0 17.749 11.434 32.807 27.288 38.118 1.994.373 2.727-.873 2.727-1.935 0-.957-.036-4.12-.054-7.478-11.101 2.433-13.444-4.738-13.444-4.738-1.815-4.646-4.431-5.879-4.431-5.879-3.62-2.49.274-2.44.274-2.44 4.006.282 6.116 4.138 6.116 4.138 3.56 6.143 9.336 4.367 11.613 3.34.357-2.595 1.39-4.369 2.533-5.374-8.863-1.011-18.179-4.46-18.179-19.847 0-4.388 1.557-7.974 4.11-10.785-.413-1.012-1.78-5.099.387-10.632 0 0 3.351-1.078 10.976 4.12 3.182-.891 6.596-1.338 9.988-1.354 3.39.015 6.807.463 9.998 1.354 7.615-5.198 10.96-4.12 10.96-4.12 2.173 5.533.807 9.62.394 10.632 2.556 2.811 4.104 6.397 4.104 10.785 0 15.427-9.333 18.82-18.22 19.817 1.431 1.245 2.708 3.69 2.708 7.442 0 5.371-.048 9.698-.048 11.019 0 1.071.718 2.323 2.741 1.93 15.846-5.318 27.265-20.37 27.265-38.114C79.903 18.017 62.037.033 40.001.033ZM15.043 57.256c-.09.2-.402.26-.684.123-.29-.132-.453-.402-.358-.603.084-.208.4-.265.688-.127.289.133.455.406.354.607Zm1.961 1.764c-.19.174-.562.093-.812-.186-.262-.282-.313-.654-.12-.834.197-.18.557-.093.82.186.261.282.312.654.112.834Zm1.349 2.257c-.244.168-.646.009-.893-.348-.244-.357-.244-.787.006-.958.247-.174.643-.015.893.34.244.36.244.789-.006.966Zm2.276 2.61c-.22.244-.684.18-1.026-.153-.349-.324-.447-.786-.227-1.026.224-.243.69-.177 1.033.153.348.324.453.786.22 1.027Zm2.944.883c-.098.312-.545.459-.997.324-.453-.135-.747-.507-.655-.822.092-.319.545-.469.997-.325.453.138.747.502.655.823Zm3.348.372c.012.333-.372.606-.845.612-.476.012-.863-.258-.87-.582 0-.333.376-.606.852-.612.476-.01.863.252.863.582Zm3.292-.126c.056.324-.274.657-.744.744-.465.087-.893-.114-.953-.435-.056-.33.28-.663.741-.747.474-.084.896.11.956.438Z" fill="#6F97B5"/></svg>