<svg fill="none" xmlns="http://www.w3.org/2000/svg" viewBox="0 0 80 80"><g clip-path="url(#clip0_381_5)" fill="#6F97B5"><path d="M39.983 7.213c10.674 0 11.937.033 16.16.227 3.894.176 6.014.823 7.434 1.386 1.856.717 3.19 1.594 4.59 2.997 1.403 1.403 2.263 2.733 3 4.593.543 1.4 1.19 3.524 1.383 7.43.193 4.227.227 5.487.227 16.164 0 10.673-.034 11.936-.227 16.16-.173 3.89-.823 6.013-1.383 7.433-.72 1.857-1.597 3.19-3 4.59-1.4 1.403-2.734 2.263-4.59 3-1.404.543-3.524 1.19-7.434 1.383-4.223.194-5.486.227-16.16.227-10.676 0-11.936-.033-16.163-.227-3.89-.176-6.01-.823-7.43-1.383-1.86-.72-3.19-1.597-4.593-3-1.404-1.4-2.26-2.733-2.997-4.59-.543-1.403-1.193-3.523-1.387-7.433-.19-4.224-.226-5.487-.226-16.16 0-10.677.036-11.937.226-16.164.177-3.89.827-6.01 1.387-7.43.717-1.86 1.593-3.19 2.997-4.593 1.403-1.403 2.733-2.26 4.593-2.997 1.4-.543 3.523-1.193 7.43-1.386 4.227-.194 5.487-.227 16.163-.227Zm0-7.203c-10.87 0-12.216.05-16.496.243-4.257.193-7.167.877-9.71 1.86-2.63 1.017-4.854 2.383-7.08 4.61-2.21 2.223-3.577 4.45-4.594 7.08-.98 2.543-1.666 5.453-1.856 9.71C.053 27.773 0 29.14 0 39.99c0 10.87.053 12.22.247 16.496.19 4.257.876 7.167 1.856 9.71 1.017 2.63 2.384 4.857 4.61 7.08 2.227 2.227 4.454 3.594 7.08 4.61 2.544.984 5.454 1.667 9.714 1.86 4.26.194 5.626.244 16.493.244 10.867 0 12.217-.05 16.493-.244 4.26-.193 7.17-.876 9.714-1.86 2.626-1.016 4.853-2.383 7.08-4.61 2.226-2.223 3.593-4.45 4.61-7.08.98-2.543 1.666-5.453 1.856-9.71.194-4.26.247-5.626.247-16.496 0-10.867-.053-12.217-.247-16.494-.19-4.26-.876-7.17-1.856-9.71-1.017-2.63-2.384-4.856-4.61-7.083-2.227-2.223-4.454-3.593-7.08-4.61-2.544-.98-5.454-1.663-9.714-1.857C52.217.06 50.85.01 39.983.01Z"/><path d="M39.984 19.467c-11.344 0-20.527 9.183-20.527 20.523 0 11.343 9.203 20.543 20.543 20.543S60.544 51.35 60.544 39.99c-.017-11.34-9.22-20.523-20.56-20.523Zm0 33.863c-7.364 0-13.324-5.96-13.324-13.32 0-7.363 5.96-13.323 13.324-13.323 7.36 0 13.32 5.96 13.32 13.323.016 7.343-5.96 13.32-13.32 13.32ZM66.134 18.66a4.808 4.808 0 0 1-4.8 4.803 4.811 4.811 0 0 1-4.804-4.803 4.811 4.811 0 0 1 4.804-4.804c2.646 0 4.8 2.137 4.8 4.804Z"/></g><defs><clipPath id="clip0_381_5"><path fill="#fff" d="M0 0h80v80H0z"/></clipPath></defs></svg>