<svg fill="none" xmlns="http://www.w3.org/2000/svg" viewBox="0 0 80 80"><g clip-path="url(#clip0_384_38)"><path d="M59.889.03H20.047C9.008.03 0 9.043 0 20.08v39.903C0 70.96 9.008 79.97 20.047 79.97h39.906C70.992 79.97 80 70.959 80 59.92V20.08C79.936 9.043 70.928.03 59.889.03ZM26.644 64.743H15.225V31.753h11.42v32.989Zm-5.772-38.064a5.821 5.821 0 0 1-5.836-5.836c0-3.236 2.6-5.839 5.836-5.839a5.822 5.822 0 0 1 5.836 5.839c-.064 3.233-2.664 5.836-5.836 5.836Zm43.84 38.064h-9.518V48.756c0-3.87-.508-8.82-5.772-8.82-5.394 0-6.28 4.19-6.28 8.564v16.242h-9.517V31.753h8.88v4.442h.253c1.398-2.54 4.634-4.506 9.709-4.506 10.466 0 12.308 6.028 12.308 14.972v18.08h-.064Z" fill="#6F97B5"/></g><defs><clipPath id="clip0_384_38"><path fill="#fff" d="M0 0h80v80H0z"/></clipPath></defs></svg>