<svg fill="none" xmlns="http://www.w3.org/2000/svg" viewBox="0 0 80 80"><path d="M77.172 49.87a3.883 3.883 0 0 0-2.672-1.773l-24.406-3.914a3.836 3.836 0 0 0-3.18.923 20.038 20.038 0 0 0-4.617 5.944 35.622 35.622 0 0 1-7.564-5.783 35.622 35.622 0 0 1-5.783-7.564 20.038 20.038 0 0 0 5.944-4.617 3.863 3.863 0 0 0 .923-3.18L31.903 5.5a3.883 3.883 0 0 0-1.772-2.672C28.383 1.738 26.44.967 24.567.583A18.02 18.02 0 0 0 19.933 0C8.942 0 0 8.942 0 19.933 0 53.056 26.944 80 60.067 80 71.058 80 80 71.058 80 60.067c0-1.625-.197-3.184-.533-4.42a17.657 17.657 0 0 0-2.295-5.778ZM60.067 72.257c-28.853 0-52.325-23.472-52.325-52.325 0-6.722 5.47-12.191 12.191-12.191.95 0 1.834.108 2.848.372.63.133 1.225.311 1.786.536l3.294 20.528a11.734 11.734 0 0 1-5.128 2.586 3.867 3.867 0 0 0-2.727 5.294 43.18 43.18 0 0 0 9.252 13.684 43.18 43.18 0 0 0 13.684 9.252 3.867 3.867 0 0 0 5.294-2.728c.417-1.885 1.3-3.63 2.586-5.127l20.522 3.294c.24.595.434 1.248.592 2 .214.8.322 1.684.322 2.634 0 6.722-5.47 12.191-12.191 12.191Z" fill="#6F97B5"/></svg>